<svg xmlns="http://www.w3.org/2000/svg" xmlns:xlink="http://www.w3.org/1999/xlink" height="738" viewBox="0 0 1440 738" width="1440">
<defs>
<linearGradient id="a" x1="1.980912%" x2="100%" y1="1.980912%" y2="100%">
  <stop offset="0" stop-color="#1f273d" />
  <stop offset="1" stop-color="#050e28" />
</linearGradient>
<path id="b" d="m0 0h1440v738h-1440z" />
<path id="c" d="m2078.14826 459.150876-268.19155 97.328128 135.071 49.114628-495.03361 179.983437-85.02004-30.693857-302.97406 109.849974v-139.733186l-114 42v299.43763l-268.138481 97.08934" />
<filter id="d" height="102.1%" width="101%" x="-.5%" y="-1%">
  <feMorphology in="SourceAlpha" operator="dilate" radius="1" result="shadowSpreadOuter1" />
  <feOffset dx="0" dy="0" in="shadowSpreadOuter1" result="shadowOffsetOuter1" />
  <feMorphology in="SourceAlpha" operator="erode" radius="1" result="shadowInner" />
  <feOffset dx="0" dy="0" in="shadowInner" result="shadowInner" />
  <feComposite in="shadowOffsetOuter1" in2="shadowInner" operator="out" result="shadowOffsetOuter1" />
  <feGaussianBlur in="shadowOffsetOuter1" result="shadowBlurOuter1" stdDeviation="2" />
  <feColorMatrix in="shadowBlurOuter1" type="matrix" values="0 0 0 0 0   0 0 0 0 0.57254902   0 0 0 0 0.811764706  0 0 0 0.08 0" />
</filter>
<mask id="e" fill="#fff">
  <use fill="#fff" fill-rule="evenodd" xlink:href="#b" />
</mask>
</defs>
<g id="user-background" fill="none" fill-rule="evenodd">
<use fill="url(#a)" xlink:href="#b" />
<g mask="url(#e)" stroke-linecap="square">
  <g transform="translate(-698 -465)">
    <g fill-rule="evenodd" stroke="#e1e5ed">
      <g opacity=".08" transform="translate(0 48)">
        <path d="m1879.58685 0-1879.58685 683.486126" />
        <path d="m1903.58685 24-1879.58685 683.486126" />
        <path d="m1927.58685 48-1879.58685 683.486126" />
        <path d="m1951.58685 72-1879.58685 683.486126" />
        <path d="m1975.58685 96-1879.58685 683.486126" />
        <path d="m1999.58685 120-1879.58685 683.486126" />
        <path d="m2023.58685 144-1879.58685 683.486126" />
        <path d="m2047.58685 168-1879.58685 683.486126" />
        <path d="m2071.58685 192-1879.58685 683.486126" />
        <path d="m2095.58685 216-1879.58685 683.486126" />
        <path d="m2119.58685 240-1879.58685 683.486126" />
        <path d="m2143.58685 264-1879.58685 683.486126" />
        <path d="m2167.58685 288-1879.58685 683.486126" />
        <path d="m2191.58685 312-1879.58685 683.486126" />
        <path d="m2215.58685 336-1879.58685 683.48613" />
        <path d="m2239.58685 360-1879.58685 683.48613" />
        <path d="m2263.58685 384-1879.58685 683.48613" />
        <path d="m2287.58685 408-1879.58685 683.48613" />
        <path d="m2311.58685 432-1879.58685 683.48613" />
        <path d="m2335.58685 456-1879.58685 683.48613" />
        <path d="m2359.58685 480-1879.58685 683.48613" />
        <path d="m2383.58685 504-1879.58685 683.48613" />
        <path d="m2407.58685 528-1879.58685 683.48613" />
        <path d="m2431.58685 552-1879.58685 683.48613" />
        <path d="m2455.58685 576-1879.58685 683.48613" />
        <path d="m2479.58685 600-1879.58685 683.48613" />
        <path d="m2503.58685 624-1879.58685 683.48613" />
        <path d="m2527.58685 648-1879.58685 683.48613" />
        <path d="m2551.58685 672-1879.58685 683.48613" />
        <path d="m2575.58685 696-1879.58685 683.48613" />
        <path d="m2599.58685 720-1879.58685 683.48613" />
        <path d="m2623.58685 744-1879.58685 683.48613" />
        <path d="m2647.58685 768-1879.58685 683.48613" />
        <path d="m2671.58685 792-1879.58685 683.48613" />
        <path d="m2695.58685 816-1879.58685 683.48613" />
        <path d="m2719.58685 840-1879.58685 683.48613" />
        <path d="m2743.58685 864-1879.58685 683.48613" />
        <path d="m2767.58685 888-1879.58685 683.48613" />
        <path d="m2791.58685 912-1879.58685 683.48613" />
        <path d="m2815.58685 936-1879.58685 683.48613" />
      </g>
      <g opacity=".08" transform="matrix(-1 0 0 1 2816 48)">
        <path d="m1879.58685 0-1879.58685 683.486126" />
        <path d="m1903.58685 24-1879.58685 683.486126" />
        <path d="m1927.58685 48-1879.58685 683.486126" />
        <path d="m1951.58685 72-1879.58685 683.486126" />
        <path d="m1975.58685 96-1879.58685 683.486126" />
        <path d="m1999.58685 120-1879.58685 683.486126" />
        <path d="m2023.58685 144-1879.58685 683.486126" />
        <path d="m2047.58685 168-1879.58685 683.486126" />
        <path d="m2071.58685 192-1879.58685 683.486126" />
        <path d="m2095.58685 216-1879.58685 683.486126" />
        <path d="m2119.58685 240-1879.58685 683.486126" />
        <path d="m2143.58685 264-1879.58685 683.486126" />
        <path d="m2167.58685 288-1879.58685 683.486126" />
        <path d="m2191.58685 312-1879.58685 683.486126" />
        <path d="m2215.58685 336-1879.58685 683.48613" />
        <path d="m2239.58685 360-1879.58685 683.48613" />
        <path d="m2263.58685 384-1879.58685 683.48613" />
        <path d="m2287.58685 408-1879.58685 683.48613" />
        <path d="m2311.58685 432-1879.58685 683.48613" />
        <path d="m2335.58685 456-1879.58685 683.48613" />
        <path d="m2359.58685 480-1879.58685 683.48613" />
        <path d="m2383.58685 504-1879.58685 683.48613" />
        <path d="m2407.58685 528-1879.58685 683.48613" />
        <path d="m2431.58685 552-1879.58685 683.48613" />
        <path d="m2455.58685 576-1879.58685 683.48613" />
        <path d="m2479.58685 600-1879.58685 683.48613" />
        <path d="m2503.58685 624-1879.58685 683.48613" />
        <path d="m2527.58685 648-1879.58685 683.48613" />
        <path d="m2551.58685 672-1879.58685 683.48613" />
        <path d="m2575.58685 696-1879.58685 683.48613" />
        <path d="m2599.58685 720-1879.58685 683.48613" />
        <path d="m2623.58685 744-1879.58685 683.48613" />
        <path d="m2647.58685 768-1879.58685 683.48613" />
        <path d="m2671.58685 792-1879.58685 683.48613" />
        <path d="m2695.58685 816-1879.58685 683.48613" />
        <path d="m2719.58685 840-1879.58685 683.48613" />
        <path d="m2743.58685 864-1879.58685 683.48613" />
        <path d="m2767.58685 888-1879.58685 683.48613" />
        <path d="m2791.58685 912-1879.58685 683.48613" />
        <path d="m2815.58685 936-1879.58685 683.48613" />
      </g>
      <g opacity=".08" transform="matrix(-1 0 0 1 2816 0)">
        <path d="m1879.58685 0-1879.58685 683.486126" />
        <path d="m1903.58685 24-1879.58685 683.486126" />
        <path d="m1927.58685 48-1879.58685 683.486126" />
        <path d="m1951.58685 72-1879.58685 683.486126" />
        <path d="m1975.58685 96-1879.58685 683.486126" />
        <path d="m1999.58685 120-1879.58685 683.486126" />
        <path d="m2023.58685 144-1879.58685 683.486126" />
        <path d="m2047.58685 168-1879.58685 683.486126" />
        <path d="m2071.58685 192-1879.58685 683.486126" />
        <path d="m2095.58685 216-1879.58685 683.486126" />
        <path d="m2119.58685 240-1879.58685 683.486126" />
        <path d="m2143.58685 264-1879.58685 683.486126" />
        <path d="m2167.58685 288-1879.58685 683.486126" />
        <path d="m2191.58685 312-1879.58685 683.486126" />
        <path d="m2215.58685 336-1879.58685 683.48613" />
        <path d="m2239.58685 360-1879.58685 683.48613" />
        <path d="m2263.58685 384-1879.58685 683.48613" />
        <path d="m2287.58685 408-1879.58685 683.48613" />
        <path d="m2311.58685 432-1879.58685 683.48613" />
        <path d="m2335.58685 456-1879.58685 683.48613" />
        <path d="m2359.58685 480-1879.58685 683.48613" />
        <path d="m2383.58685 504-1879.58685 683.48613" />
        <path d="m2407.58685 528-1879.58685 683.48613" />
        <path d="m2431.58685 552-1879.58685 683.48613" />
        <path d="m2455.58685 576-1879.58685 683.48613" />
        <path d="m2479.58685 600-1879.58685 683.48613" />
        <path d="m2503.58685 624-1879.58685 683.48613" />
        <path d="m2527.58685 648-1879.58685 683.48613" />
        <path d="m2551.58685 672-1879.58685 683.48613" />
        <path d="m2575.58685 696-1879.58685 683.48613" />
        <path d="m2599.58685 720-1879.58685 683.48613" />
        <path d="m2623.58685 744-1879.58685 683.48613" />
        <path d="m2647.58685 768-1879.58685 683.48613" />
        <path d="m2671.58685 792-1879.58685 683.48613" />
        <path d="m2695.58685 816-1879.58685 683.48613" />
        <path d="m2719.58685 840-1879.58685 683.48613" />
        <path d="m2743.58685 864-1879.58685 683.48613" />
        <path d="m2767.58685 888-1879.58685 683.48613" />
        <path d="m2791.58685 912-1879.58685 683.48613" />
        <path d="m2815.58685 936-1879.58685 683.48613" />
      </g>
      <g opacity=".08" transform="translate(777 364)">
        <path d="m1 0v929.120339" />
        <path d="m91 0v929.120339" />
        <path d="m181 0v929.120339" />
        <path d="m271 0v929.120339" />
        <path d="m361 0v929.120339" />
        <path d="m451 0v929.120339" />
        <path d="m541 0v929.120339" />
        <path d="m631 0v929.120339" />
        <path d="m721 0v929.120339" />
        <path d="m811 0v929.120339" />
        <path d="m901 0v929.120339" />
        <path d="m991 0v929.120339" />
        <path d="m1081 0v929.120339" />
        <path d="m1171 0v929.120339" />
        <path d="m1261 0v929.120339" />
      </g>
      <g opacity=".08" transform="translate(798 364)">
        <path d="m1 0v929.120339" />
        <path d="m91 0v929.120339" />
        <path d="m181 0v929.120339" />
        <path d="m271 0v929.120339" />
        <path d="m361 0v929.120339" />
        <path d="m451 0v929.120339" />
        <path d="m541 0v929.120339" />
        <path d="m631 0v929.120339" />
        <path d="m721 0v929.120339" />
        <path d="m811 0v929.120339" />
        <path d="m901 0v929.120339" />
        <path d="m991 0v929.120339" />
        <path d="m1081 0v929.120339" />
        <path d="m1171 0v929.120339" />
        <path d="m1261 0v929.120339" />
      </g>
    </g>
    <g opacity=".24">
      <use fill="#000" filter="url(#d)" xlink:href="#c" />
      <use stroke="#006dcc" stroke-width="2" xlink:href="#c" />
    </g>
  </g>
</g>
</g>
</svg>
