<?xml version="1.0" encoding="UTF-8"?>
<svg width="267px" height="184px" viewBox="0 0 267 184" version="1.1" xmlns="http://www.w3.org/2000/svg" xmlns:xlink="http://www.w3.org/1999/xlink">
    <title>Workstation Wordmark - Vertical - Colour</title>
    <defs>
        <linearGradient x1="0%" y1="0%" x2="123.131655%" y2="122.005224%" id="linearGradient-1">
            <stop stop-color="#A0D0FA" offset="0%"></stop>
            <stop stop-color="#00417A" offset="100%"></stop>
        </linearGradient>
        <linearGradient x1="24.1052305%" y1="20.6776425%" x2="102.550841%" y2="123.012337%" id="linearGradient-2">
            <stop stop-color="#006DCC" offset="0%"></stop>
            <stop stop-color="#006DCC" stop-opacity="0" offset="100%"></stop>
        </linearGradient>
        <linearGradient x1="50%" y1="-23.3113725%" x2="50%" y2="99.4239307%" id="linearGradient-3">
            <stop stop-color="#00417A" offset="0%"></stop>
            <stop stop-color="#00417A" stop-opacity="0.16" offset="100%"></stop>
        </linearGradient>
    </defs>
    <g id="Page-1" stroke="none" stroke-width="1" fill="none" fill-rule="evenodd">
        <g id="Workstation-Logo---Colour" transform="translate(-1055.000000, -336.000000)">
            <g id="Workstation-Wordmark---Vertical---Colour" transform="translate(1055.000000, 336.000000)">
                <path d="M6.62,176 L6.62,158.96 C6.62,157.946667 6.59333333,156.893333 6.54,155.8 C6.48666667,154.706667 6.42,153.64 6.34,152.6 L6.34,152.6 L6.5,152.6 L17.94,176 L22.06,176 L22.06,147.44 L18.82,147.44 L18.82,164.24 C18.82,165.173333 18.84,166.206667 18.88,167.34 C18.92,168.473333 18.9666667,169.546667 19.02,170.56 L19.02,170.56 L18.9,170.56 L7.5,147.44 L3.38,147.44 L3.38,176 L6.62,176 Z M33.98,176.4 C35.1,176.4 36.1266667,176.12 37.06,175.56 C37.9933333,175 38.7266667,174.186667 39.26,173.12 L39.26,173.12 L39.46,173.12 L39.86,176 L42.58,176 L42.58,154.52 L39.22,154.52 L39.22,165.88 C39.22,168.413333 38.88,170.313333 38.2,171.58 C37.52,172.846667 36.3,173.48 34.54,173.48 C33.42,173.48 32.5933333,173.04 32.06,172.16 C31.5266667,171.28 31.26,169.906667 31.26,168.04 L31.26,168.04 L31.26,154.52 L27.94,154.52 L27.94,168.56 C27.94,171.04 28.4133333,172.966667 29.36,174.34 C30.3066667,175.713333 31.8466667,176.4 33.98,176.4 Z M49.98,151.04 C50.5666667,151.04 51.0266667,150.846667 51.36,150.46 C51.6933333,150.073333 51.86,149.506667 51.86,148.76 C51.86,147.24 51.2333333,146.48 49.98,146.48 C49.3933333,146.48 48.92,146.666667 48.56,147.04 C48.2,147.413333 48.02,147.986667 48.02,148.76 C48.02,149.506667 48.2,150.073333 48.56,150.46 C48.92,150.846667 49.3933333,151.04 49.98,151.04 Z M51.58,176 L51.58,154.52 L48.26,154.52 L48.26,176 L51.58,176 Z M58.58,176 L62.82,167.64 L67.02,176 L70.62,176 L64.78,165.08 L70.38,154.52 L66.78,154.52 L62.86,162.4 L58.98,154.52 L55.38,154.52 L60.9,164.96 L55.02,176 L58.58,176 Z M90.06,176 L94.18,157.64 C94.42,156.653333 94.62,155.646667 94.78,154.62 C94.94,153.593333 95.06,152.733333 95.14,152.04 C95.2733333,153.106667 95.4266667,154.14 95.6,155.14 C95.7733333,156.14 95.94,156.973333 96.1,157.64 L96.1,157.64 L100.34,176 L104.22,176 L110.58,147.44 L107.1,147.44 L103.3,164.92 C103.06,166.013333 102.833333,167.166667 102.62,168.38 C102.406667,169.593333 102.233333,170.8 102.1,172 C101.94,170.773333 101.753333,169.56 101.54,168.36 C101.326667,167.16 101.1,166.026667 100.86,164.96 L100.86,164.96 L96.82,147.44 L93.5,147.44 L89.5,164.92 C89.26,166.04 89.0266667,167.22 88.8,168.46 C88.5733333,169.7 88.38,170.88 88.22,172 C88.1133333,171.093333 87.96,170.033333 87.76,168.82 C87.56,167.606667 87.3266667,166.306667 87.06,164.92 L87.06,164.92 L83.3,147.44 L79.78,147.44 L86.22,176 L90.06,176 Z M120.06,176.4 C122.726667,176.4 124.74,175.386667 126.1,173.36 C127.46,171.333333 128.14,168.626667 128.14,165.24 C128.14,161.613333 127.426667,158.853333 126,156.96 C124.573333,155.066667 122.62,154.12 120.14,154.12 C117.473333,154.12 115.466667,155.086667 114.12,157.02 C112.773333,158.953333 112.1,161.693333 112.1,165.24 C112.1,168.653333 112.793333,171.366667 114.18,173.38 C115.566667,175.393333 117.526667,176.4 120.06,176.4 Z M120.14,173.52 C118.54,173.52 117.366667,172.813333 116.62,171.4 C115.873333,169.986667 115.5,167.933333 115.5,165.24 C115.5,162.546667 115.866667,160.5 116.6,159.1 C117.333333,157.7 118.513333,157 120.14,157 C121.713333,157 122.88,157.7 123.64,159.1 C124.4,160.5 124.78,162.546667 124.78,165.24 C124.78,167.933333 124.4,169.986667 123.64,171.4 C122.88,172.813333 121.713333,173.52 120.14,173.52 Z M136.14,176 L136.14,164.72 C136.14,163.306667 136.34,162.053333 136.74,160.96 C137.14,159.866667 137.686667,159.006667 138.38,158.38 C139.073333,157.753333 139.86,157.44 140.74,157.44 C141.06,157.44 141.373333,157.46 141.68,157.5 C141.986667,157.54 142.273333,157.613333 142.54,157.72 L142.54,157.72 L143.02,154.4 C142.673333,154.293333 142.326667,154.22 141.98,154.18 C141.633333,154.14 141.3,154.12 140.98,154.12 C139.86,154.12 138.893333,154.506667 138.08,155.28 C137.266667,156.053333 136.593333,157.053333 136.06,158.28 L136.06,158.28 L135.86,158.28 L135.46,154.52 L132.82,154.52 L132.82,176 L136.14,176 Z M149.62,176 L149.62,168.08 L151.9,165.6 L157.1,176 L160.82,176 L154.14,163.08 L160.38,154.52 L156.7,154.52 L151.3,162.28 C151.033333,162.653333 150.733333,163.093333 150.4,163.6 C150.066667,164.106667 149.793333,164.56 149.58,164.96 L149.58,164.96 L149.42,164.96 C149.473333,164.32 149.52,163.646667 149.56,162.94 C149.6,162.233333 149.62,161.56 149.62,160.92 L149.62,160.92 L149.62,145.6 L146.3,145.6 L146.3,176 L149.62,176 Z M168.02,176.4 C170.153333,176.4 171.826667,175.866667 173.04,174.8 C174.253333,173.733333 174.86,172.2 174.86,170.2 C174.86,168.546667 174.406667,167.26 173.5,166.34 C172.593333,165.42 171.366667,164.546667 169.82,163.72 C168.326667,162.946667 167.28,162.293333 166.68,161.76 C166.08,161.226667 165.78,160.533333 165.78,159.68 C165.78,158.826667 166.08,158.153333 166.68,157.66 C167.28,157.166667 168.113333,156.92 169.18,156.92 C169.953333,156.92 170.7,157.04 171.42,157.28 C172.14,157.52 172.833333,157.826667 173.5,158.2 L173.5,158.2 L174.7,155.56 C173.873333,155.106667 173.006667,154.753333 172.1,154.5 C171.193333,154.246667 170.233333,154.12 169.22,154.12 C167.246667,154.12 165.646667,154.633333 164.42,155.66 C163.193333,156.686667 162.58,158.066667 162.58,159.8 C162.58,161.48 163.046667,162.78 163.98,163.7 C164.913333,164.62 166.166667,165.48 167.74,166.28 C169.206667,167 170.22,167.653333 170.78,168.24 C171.34,168.826667 171.62,169.533333 171.62,170.36 C171.62,171.346667 171.313333,172.12 170.7,172.68 C170.086667,173.24 169.18,173.52 167.98,173.52 C166.993333,173.52 166.02,173.353333 165.06,173.02 C164.1,172.686667 163.286667,172.293333 162.62,171.84 L162.62,171.84 L162.62,175.16 C163.286667,175.506667 164.066667,175.8 164.96,176.04 C165.853333,176.28 166.873333,176.4 168.02,176.4 Z M184.06,176.4 C185.313333,176.4 186.366667,176.186667 187.22,175.76 L187.22,175.76 L187.22,173.12 C186.5,173.386667 185.753333,173.52 184.98,173.52 C184.153333,173.52 183.553333,173.24 183.18,172.68 C182.806667,172.12 182.62,171.253333 182.62,170.08 L182.62,170.08 L182.62,157.24 L186.98,157.24 L186.98,154.52 L182.62,154.52 L182.62,149.68 L180.46,149.68 L179.42,154.48 L176.98,155.52 L176.98,157.24 L179.26,157.24 L179.26,170.4 C179.26,172.533333 179.686667,174.066667 180.54,175 C181.393333,175.933333 182.566667,176.4 184.06,176.4 Z M194.78,176.4 C196.113333,176.4 197.213333,176.12 198.08,175.56 C198.946667,175 199.713333,174.146667 200.38,173 L200.38,173 L200.5,173 L201.02,176 L203.54,176 L203.54,161.48 C203.54,159.08 203.053333,157.26 202.08,156.02 C201.106667,154.78 199.526667,154.16 197.34,154.16 C196.193333,154.16 195.1,154.306667 194.06,154.6 C193.02,154.893333 192.073333,155.293333 191.22,155.8 L191.22,155.8 L192.26,158.28 C193.06,157.853333 193.84,157.513333 194.6,157.26 C195.36,157.006667 196.126667,156.88 196.9,156.88 C198.046667,156.88 198.893333,157.253333 199.44,158 C199.986667,158.746667 200.26,159.973333 200.26,161.68 L200.26,161.68 L200.26,163.04 L197.46,163.16 C194.82,163.266667 192.82,163.9 191.46,165.06 C190.1,166.22 189.42,167.866667 189.42,170 C189.42,171.84 189.88,173.366667 190.8,174.58 C191.72,175.793333 193.046667,176.4 194.78,176.4 Z M195.82,173.68 C194.913333,173.68 194.186667,173.38 193.64,172.78 C193.093333,172.18 192.82,171.24 192.82,169.96 C192.82,168.573333 193.22,167.506667 194.02,166.76 C194.82,166.013333 196.14,165.6 197.98,165.52 L197.98,165.52 L200.26,165.4 L200.26,167.48 C200.26,169.48 199.853333,171.013333 199.04,172.08 C198.226667,173.146667 197.153333,173.68 195.82,173.68 Z M214.06,176.4 C215.313333,176.4 216.366667,176.186667 217.22,175.76 L217.22,175.76 L217.22,173.12 C216.5,173.386667 215.753333,173.52 214.98,173.52 C214.153333,173.52 213.553333,173.24 213.18,172.68 C212.806667,172.12 212.62,171.253333 212.62,170.08 L212.62,170.08 L212.62,157.24 L216.98,157.24 L216.98,154.52 L212.62,154.52 L212.62,149.68 L210.46,149.68 L209.42,154.48 L206.98,155.52 L206.98,157.24 L209.26,157.24 L209.26,170.4 C209.26,172.533333 209.686667,174.066667 210.54,175 C211.393333,175.933333 212.566667,176.4 214.06,176.4 Z M222.46,151.04 C223.046667,151.04 223.506667,150.846667 223.84,150.46 C224.173333,150.073333 224.34,149.506667 224.34,148.76 C224.34,147.24 223.713333,146.48 222.46,146.48 C221.873333,146.48 221.4,146.666667 221.04,147.04 C220.68,147.413333 220.5,147.986667 220.5,148.76 C220.5,149.506667 220.68,150.073333 221.04,150.46 C221.4,150.846667 221.873333,151.04 222.46,151.04 Z M224.06,176 L224.06,154.52 L220.74,154.52 L220.74,176 L224.06,176 Z M236.7,176.4 C239.366667,176.4 241.38,175.386667 242.74,173.36 C244.1,171.333333 244.78,168.626667 244.78,165.24 C244.78,161.613333 244.066667,158.853333 242.64,156.96 C241.213333,155.066667 239.26,154.12 236.78,154.12 C234.113333,154.12 232.106667,155.086667 230.76,157.02 C229.413333,158.953333 228.74,161.693333 228.74,165.24 C228.74,168.653333 229.433333,171.366667 230.82,173.38 C232.206667,175.393333 234.166667,176.4 236.7,176.4 Z M236.78,173.52 C235.18,173.52 234.006667,172.813333 233.26,171.4 C232.513333,169.986667 232.14,167.933333 232.14,165.24 C232.14,162.546667 232.506667,160.5 233.24,159.1 C233.973333,157.7 235.153333,157 236.78,157 C238.353333,157 239.52,157.7 240.28,159.1 C241.04,160.5 241.42,162.546667 241.42,165.24 C241.42,167.933333 241.04,169.986667 240.28,171.4 C239.52,172.813333 238.353333,173.52 236.78,173.52 Z M252.78,176 L252.78,164.84 C252.78,162.146667 253.126667,160.173333 253.82,158.92 C254.513333,157.666667 255.713333,157.04 257.42,157.04 C258.593333,157.04 259.44,157.466667 259.96,158.32 C260.48,159.173333 260.74,160.453333 260.74,162.16 L260.74,162.16 L260.74,176 L264.06,176 L264.06,161.6 C264.06,159.04 263.553333,157.153333 262.54,155.94 C261.526667,154.726667 260.033333,154.12 258.06,154.12 C256.94,154.12 255.906667,154.406667 254.96,154.98 C254.013333,155.553333 253.273333,156.373333 252.74,157.44 L252.74,157.44 L252.54,157.44 L252.14,154.52 L249.46,154.52 L249.46,176 L252.78,176 Z" id="NuixWorkstation" fill="#0E1F33" fill-rule="nonzero"></path>
                <g id="Workstation-Mark---Colour" transform="translate(70.000000, 0.000000)">
                    <path d="M60,114 C89.8233765,114 114,89.8233765 114,60 C114,30.1766235 89.8233765,6 60,6 C30.1766235,6 6,30.1766235 6,60 C6,89.8233765 30.1766235,114 60,114 Z M60,120 C26.862915,120 0,93.137085 0,60 C0,26.862915 26.862915,0 60,0 C93.137085,0 120,26.862915 120,60 C120,93.137085 93.137085,120 60,120 Z" id="Mark-Base" fill="url(#linearGradient-1)" fill-rule="nonzero"></path>
                    <path d="M104.882411,27.7120298 C106.865201,27.7120298 108.825527,27.8082083 110.758978,27.9961544 L110.760359,27.9950084 C116.612841,37.2576685 120,48.2332776 120,60 C120,93.137085 93.137085,120 60,120 C58.0171464,120 56.0567579,119.903815 54.1232458,119.715857 C48.2695011,110.454138 44.8824114,99.4786324 44.8824114,87.7120298 C44.8824114,54.5749448 71.7453264,27.7120298 104.882411,27.7120298 Z" id="Path" fill="url(#linearGradient-2)"></path>
                    <path d="M76.0020623,2.15750013 L76.161914,2.33718396 C85.5262736,12.9209882 91.2104664,26.836433 91.2104664,42.0794921 C91.2104664,75.216577 64.3475514,102.079492 31.2104664,102.079492 C25.6687455,102.079492 20.3025003,101.328191 15.2080296,99.9218886 C12.7992393,97.2210358 10.6314133,94.3015569 8.73776066,91.196552 C15.5809697,94.3316267 23.1916001,96.0794921 31.2104664,96.0794921 C61.0338429,96.0794921 85.2104664,71.9028685 85.2104664,42.0794921 C85.2104664,25.2047726 77.4702135,10.137886 65.3464009,0.235525498 C69.0020269,0.557716668 72.5639343,1.20844652 76.0020623,2.15750013 Z" id="Path" fill="url(#linearGradient-3)" fill-rule="nonzero"></path>
                </g>
            </g>
        </g>
    </g>
</svg>