<?xml version="1.0" encoding="UTF-8"?>
<svg width="228px" height="189px" viewBox="0 0 228 189" version="1.1" xmlns="http://www.w3.org/2000/svg" xmlns:xlink="http://www.w3.org/1999/xlink">
    <title>Discover Wordmark - Vertical - Colour</title>
    <defs>
        <linearGradient x1="0%" y1="49.9999988%" x2="100%" y2="50%" id="linearGradient-1">
            <stop stop-color="#019BDC" offset="0%"></stop>
            <stop stop-color="#6057A1" offset="50.6585439%"></stop>
            <stop stop-color="#B4046B" offset="100%"></stop>
        </linearGradient>
        <linearGradient x1="1.14543736%" y1="0%" x2="98.8545626%" y2="100%" id="linearGradient-2">
            <stop stop-color="#AD3EA6" offset="0%"></stop>
            <stop stop-color="#D692D2" offset="100%"></stop>
        </linearGradient>
    </defs>
    <g id="Page-1" stroke="none" stroke-width="1" fill="none" fill-rule="evenodd">
        <g id="Discover-Logo---Colour" transform="translate(-1077.000000, -307.000000)">
            <g id="Discover-Wordmark---Vertical---Colour" transform="translate(1077.000000, 307.000000)">
                <g id="Discover-Mark---Colour" transform="translate(54.000000, 0.000000)">
                    <path d="M34.0911407,25.2528871 C34.2594,25.2499452 34.4272179,25.2484743 34.5945946,25.2484743 C34.7619686,25.2484743 34.929784,25.2499452 35.0980405,25.252887 C40.0065221,25.3387008 43.9407149,29.34228 43.9407149,34.2515117 L43.9407149,36.3326303 C43.9407149,41.2418527 40.0065207,45.2454247 35.0980485,45.3312454 C34.9297892,45.3341873 34.7619713,45.3356582 34.5945946,45.3356582 C34.4272205,45.3356582 34.2594052,45.3341873 34.0911486,45.3312456 C29.1826671,45.2454317 25.2484743,41.2418525 25.2484743,36.3326208 L25.2484743,34.2515022 C25.2484743,29.3422798 29.1826685,25.3387078 34.0911407,25.2528871 L34.0911407,25.2528871 Z M8.84266644,25.2528871 C9.01092568,25.2499452 9.17874364,25.2484743 9.34612031,25.2484743 C9.51349436,25.2484743 9.68130968,25.2499452 9.84956627,25.252887 C14.7580478,25.3387008 18.6922406,29.34228 18.6922406,34.2515117 L18.6922406,36.3326303 C18.6922406,41.2418527 14.7580464,45.2454247 9.84957419,45.3312454 C9.68131495,45.3341873 9.51349699,45.3356582 9.34612031,45.3356582 C9.17874626,45.3356582 9.01093095,45.3341873 8.84267436,45.3312456 C3.93419278,45.2454317 0,41.2418525 0,36.3326208 L0,34.2515022 C0,29.3422798 3.93419424,25.3387078 8.84266644,25.2528871 L8.84266644,25.2528871 Z M84.5880893,25.2528871 C84.7563485,25.2499452 84.9241665,25.2484743 85.0915432,25.2484743 C85.2589172,25.2484743 85.4267325,25.2499452 85.5949891,25.252887 C90.5034707,25.3387008 94.4376635,29.34228 94.4376635,34.2515117 L94.4376635,36.3326303 C94.4376635,41.2418527 90.5034692,45.2454247 85.594997,45.3312454 C85.4267378,45.3341873 85.2589198,45.3356582 85.0915432,45.3356582 C84.9241691,45.3356582 84.7563538,45.3341873 84.5880972,45.3312456 C79.6796156,45.2454317 75.7454228,41.2418525 75.7454228,36.3326208 L75.7454228,34.2515022 C75.7454228,29.3422798 79.6796171,25.3387078 84.5880893,25.2528871 Z M59.339615,25.2528871 C59.5078742,25.2499452 59.6756922,25.2484743 59.8430689,25.2484743 C60.0104429,25.2484743 60.1782582,25.2499452 60.3465148,25.252887 C65.2549964,25.3387008 69.1891892,29.34228 69.1891892,34.2515117 L69.1891892,36.3326303 C69.1891892,41.2418527 65.2549949,45.2454247 60.3465227,45.3312454 C60.1782635,45.3341873 60.0104456,45.3356582 59.8430689,45.3356582 C59.6756948,45.3356582 59.5078795,45.3341873 59.3396229,45.3312456 C54.4311413,45.2454317 50.4969486,41.2418525 50.4969486,36.3326208 L50.4969486,34.2515022 C50.4969486,29.3422798 54.4311428,25.3387078 59.339615,25.2528871 Z M109.836564,25.2528871 C110.004823,25.2499452 110.172641,25.2484743 110.340017,25.2484743 C110.507391,25.2484743 110.675207,25.2499452 110.843463,25.252887 C115.751945,25.3387008 119.686138,29.34228 119.686138,34.2515117 L119.686138,36.3326303 C119.686138,41.2418527 115.751944,45.2454247 110.843471,45.3312454 C110.675212,45.3341873 110.507394,45.3356582 110.340017,45.3356582 C110.172643,45.3356582 110.004828,45.3341873 109.836571,45.3312456 C104.92809,45.2454317 100.993897,41.2418525 100.993897,36.3326208 L100.993897,34.2515022 C100.993897,29.3422798 104.928091,25.3387078 109.836564,25.2528871 Z M34.0911407,50.5013614 C34.2594,50.4984195 34.4272179,50.4969486 34.5945946,50.4969486 C34.7619686,50.4969486 34.929784,50.4984195 35.0980405,50.5013612 C40.0065221,50.5871751 43.9407149,54.5907543 43.9407149,59.499986 L43.9407149,61.5811046 C43.9407149,66.490327 40.0065207,70.493899 35.0980485,70.5797197 C34.9297892,70.5826616 34.7619713,70.5841325 34.5945946,70.5841325 C34.4272205,70.5841325 34.2594052,70.5826616 34.0911486,70.5797198 C29.1826671,70.493906 25.2484743,66.4903268 25.2484743,61.5810951 L25.2484743,59.4999765 C25.2484743,54.5907541 29.1826685,50.5871821 34.0911407,50.5013614 L34.0911407,50.5013614 Z M8.84266644,50.5013614 C9.01092568,50.4984195 9.17874364,50.4969486 9.34612031,50.4969486 C9.51349436,50.4969486 9.68130968,50.4984195 9.84956627,50.5013612 C14.7580478,50.5871751 18.6922406,54.5907543 18.6922406,59.499986 L18.6922406,61.5811046 C18.6922406,66.490327 14.7580464,70.493899 9.84957419,70.5797197 C9.68131495,70.5826616 9.51349699,70.5841325 9.34612031,70.5841325 C9.17874626,70.5841325 9.01093095,70.5826616 8.84267436,70.5797198 C3.93419278,70.493906 0,66.4903268 0,61.5810951 L0,59.4999765 C0,54.5907541 3.93419424,50.5871821 8.84266644,50.5013614 L8.84266644,50.5013614 Z M84.5880893,50.5013614 C84.7563485,50.4984195 84.9241665,50.4969486 85.0915432,50.4969486 C85.2589172,50.4969486 85.4267325,50.4984195 85.5949891,50.5013612 C90.5034707,50.5871751 94.4376635,54.5907543 94.4376635,59.499986 L94.4376635,61.5811046 C94.4376635,66.490327 90.5034692,70.493899 85.594997,70.5797197 C85.4267378,70.5826616 85.2589198,70.5841325 85.0915432,70.5841325 C84.9241691,70.5841325 84.7563538,70.5826616 84.5880972,70.5797198 C79.6796156,70.493906 75.7454228,66.4903268 75.7454228,61.5810951 L75.7454228,59.4999765 C75.7454228,54.5907541 79.6796171,50.5871821 84.5880893,50.5013614 Z M109.836564,50.5013614 C110.004823,50.4984195 110.172641,50.4969486 110.340017,50.4969486 C110.507391,50.4969486 110.675207,50.4984195 110.843463,50.5013612 C115.751945,50.5871751 119.686138,54.5907543 119.686138,59.499986 L119.686138,61.5811046 C119.686138,66.490327 115.751944,70.493899 110.843471,70.5797197 C110.675212,70.5826616 110.507394,70.5841325 110.340017,70.5841325 C110.172643,70.5841325 110.004828,70.5826616 109.836571,70.5797198 C104.92809,70.493906 100.993897,66.4903268 100.993897,61.5810951 L100.993897,59.4999765 C100.993897,54.5907541 104.928091,50.5871821 109.836564,50.5013614 Z M34.0911407,75.7498357 C34.2594,75.7468938 34.4272179,75.7454228 34.5945946,75.7454228 C34.7619686,75.7454228 34.929784,75.7468937 35.0980405,75.7498355 C40.0065221,75.8356494 43.9407149,79.8392286 43.9407149,84.7484602 L43.9407149,86.8295789 C43.9407149,91.7388013 40.0065207,95.7423733 35.0980485,95.828194 C34.9297892,95.8311359 34.7619713,95.8326068 34.5945946,95.8326068 C34.4272205,95.8326068 34.2594052,95.8311359 34.0911486,95.8281941 C29.1826671,95.7423802 25.2484743,91.7388011 25.2484743,86.8295694 L25.2484743,84.7484508 C25.2484743,79.8392284 29.1826685,75.8356564 34.0911407,75.7498357 L34.0911407,75.7498357 Z M8.84266644,75.7498357 C9.01092568,75.7468938 9.17874364,75.7454228 9.34612031,75.7454228 C9.51349436,75.7454228 9.68130968,75.7468937 9.84956627,75.7498355 C14.7580478,75.8356494 18.6922406,79.8392286 18.6922406,84.7484602 L18.6922406,86.8295789 C18.6922406,91.7388013 14.7580464,95.7423733 9.84957419,95.828194 C9.68131495,95.8311359 9.51349699,95.8326068 9.34612031,95.8326068 C9.17874626,95.8326068 9.01093095,95.8311359 8.84267436,95.8281941 C3.93419278,95.7423802 0,91.7388011 0,86.8295694 L0,84.7484508 C0,79.8392284 3.93419424,75.8356564 8.84266644,75.7498357 L8.84266644,75.7498357 Z M84.5880893,75.7498357 C84.7563485,75.7468938 84.9241665,75.7454228 85.0915432,75.7454228 C85.2589172,75.7454228 85.4267325,75.7468937 85.5949891,75.7498355 C90.5034707,75.8356494 94.4376635,79.8392286 94.4376635,84.7484602 L94.4376635,86.8295789 C94.4376635,91.7388013 90.5034692,95.7423733 85.594997,95.828194 C85.4267378,95.8311359 85.2589198,95.8326068 85.0915432,95.8326068 C84.9241691,95.8326068 84.7563538,95.8311359 84.5880972,95.8281941 C79.6796156,95.7423802 75.7454228,91.7388011 75.7454228,86.8295694 L75.7454228,84.7484508 C75.7454228,79.8392284 79.6796171,75.8356564 84.5880893,75.7498357 Z M59.339615,75.7498357 C59.5078742,75.7468938 59.6756922,75.7454228 59.8430689,75.7454228 C60.0104429,75.7454228 60.1782582,75.7468937 60.3465148,75.7498355 C65.2549964,75.8356494 69.1891892,79.8392286 69.1891892,84.7484602 L69.1891892,86.8295789 C69.1891892,91.7388013 65.2549949,95.7423733 60.3465227,95.828194 C60.1782635,95.8311359 60.0104456,95.8326068 59.8430689,95.8326068 C59.6756948,95.8326068 59.5078795,95.8311359 59.3396229,95.8281941 C54.4311413,95.7423802 50.4969486,91.7388011 50.4969486,86.8295694 L50.4969486,84.7484508 C50.4969486,79.8392284 54.4311428,75.8356564 59.339615,75.7498357 Z M109.836564,75.7498357 C110.004823,75.7468938 110.172641,75.7454228 110.340017,75.7454228 C110.507391,75.7454228 110.675207,75.7468937 110.843463,75.7498355 C115.751945,75.8356494 119.686138,79.8392286 119.686138,84.7484602 L119.686138,86.8295789 C119.686138,91.7388013 115.751944,95.7423733 110.843471,95.828194 C110.675212,95.8311359 110.507394,95.8326068 110.340017,95.8326068 C110.172643,95.8326068 110.004828,95.8311359 109.836571,95.8281941 C104.92809,95.7423802 100.993897,91.7388011 100.993897,86.8295694 L100.993897,84.7484508 C100.993897,79.8392284 104.928091,75.8356564 109.836564,75.7498357 Z M34.0911407,100.99831 C34.2594,100.995368 34.4272179,100.993897 34.5945946,100.993897 C34.7619686,100.993897 34.929784,100.995368 35.0980405,100.99831 C40.0065221,101.084124 43.9407149,105.087703 43.9407149,109.996935 L43.9407149,112.078053 C43.9407149,116.987276 40.0065207,120.990848 35.0980485,121.076668 C34.9297892,121.07961 34.7619713,121.081081 34.5945946,121.081081 C34.4272205,121.081081 34.2594052,121.07961 34.0911486,121.076668 C29.1826671,120.990855 25.2484743,116.987275 25.2484743,112.078044 L25.2484743,109.996925 C25.2484743,105.087703 29.1826685,101.084131 34.0911407,100.99831 L34.0911407,100.99831 Z M84.5880893,100.99831 C84.7563485,100.995368 84.9241665,100.993897 85.0915432,100.993897 C85.2589172,100.993897 85.4267325,100.995368 85.5949891,100.99831 C90.5034707,101.084124 94.4376635,105.087703 94.4376635,109.996935 L94.4376635,112.078053 C94.4376635,116.987276 90.5034692,120.990848 85.594997,121.076668 C85.4267378,121.07961 85.2589198,121.081081 85.0915432,121.081081 C84.9241691,121.081081 84.7563538,121.07961 84.5880972,121.076668 C79.6796156,120.990855 75.7454228,116.987275 75.7454228,112.078044 L75.7454228,109.996925 C75.7454228,105.087703 79.6796171,101.084131 84.5880893,100.99831 Z M59.339615,100.99831 C59.5078742,100.995368 59.6756922,100.993897 59.8430689,100.993897 C60.0104429,100.993897 60.1782582,100.995368 60.3465148,100.99831 C65.2549964,101.084124 69.1891892,105.087703 69.1891892,109.996935 L69.1891892,112.078053 C69.1891892,116.987276 65.2549949,120.990848 60.3465227,121.076668 C60.1782635,121.07961 60.0104456,121.081081 59.8430689,121.081081 C59.6756948,121.081081 59.5078795,121.07961 59.3396229,121.076668 C54.4311413,120.990855 50.4969486,116.987275 50.4969486,112.078044 L50.4969486,109.996925 C50.4969486,105.087703 54.4311428,101.084131 59.339615,100.99831 L59.339615,100.99831 Z M34.0911407,0.00441281658 C34.2594,0.00147093886 34.4272179,0 34.5945946,0 C34.7619686,0 34.929784,0.00147089271 35.0980405,0.00441267812 C40.0065221,0.090226565 43.9407149,4.09380575 43.9407149,9.0030374 L43.9407149,11.084156 C43.9407149,15.9933784 40.0065207,19.9969504 35.0980485,20.0827711 C34.9297892,20.085713 34.7619713,20.087184 34.5945946,20.087184 C34.4272205,20.087184 34.2594052,20.0857131 34.0911486,20.0827713 C29.1826671,19.9969574 25.2484743,15.9933782 25.2484743,11.0841466 L25.2484743,9.00302791 C25.2484743,4.09380551 29.1826685,0.0902335123 34.0911407,0.00441281658 L34.0911407,0.00441281658 Z M84.5880893,0.00441281658 C84.7563485,0.00147093886 84.9241665,0 85.0915432,0 C85.2589172,0 85.4267325,0.00147089271 85.5949891,0.00441267812 C90.5034707,0.090226565 94.4376635,4.09380575 94.4376635,9.0030374 L94.4376635,11.084156 C94.4376635,15.9933784 90.5034692,19.9969504 85.594997,20.0827711 C85.4267378,20.085713 85.2589198,20.087184 85.0915432,20.087184 C84.9241691,20.087184 84.7563538,20.0857131 84.5880972,20.0827713 C79.6796156,19.9969574 75.7454228,15.9933782 75.7454228,11.0841466 L75.7454228,9.00302791 C75.7454228,4.09380551 79.6796171,0.0902335123 84.5880893,0.00441281658 Z M59.339615,0.00441281658 C59.5078742,0.00147093886 59.6756922,0 59.8430689,0 C60.0104429,0 60.1782582,0.00147089271 60.3465148,0.00441267812 C65.2549964,0.090226565 69.1891892,4.09380575 69.1891892,9.0030374 L69.1891892,11.084156 C69.1891892,15.9933784 65.2549949,19.9969504 60.3465227,20.0827711 C60.1782635,20.085713 60.0104456,20.087184 59.8430689,20.087184 C59.6756948,20.087184 59.5078795,20.0857131 59.3396229,20.0827713 C54.4311413,19.9969574 50.4969486,15.9933782 50.4969486,11.0841466 L50.4969486,9.00302791 C50.4969486,4.09380551 54.4311428,0.0902335123 59.339615,0.00441281658 Z" id="Shape" fill="url(#linearGradient-1)"></path>
                    <path d="M34.0911407,25.2528871 C34.2594,25.2499452 34.4272179,25.2484743 34.5945946,25.2484743 C34.7619686,25.2484743 34.929784,25.2499452 35.0980405,25.252887 C40.0065221,25.3387008 43.9407149,29.34228 43.9407149,34.2515117 L43.9407149,36.3326303 C43.9407149,41.2418527 40.0065207,45.2454247 35.0980485,45.3312454 C34.9297892,45.3341873 34.7619713,45.3356582 34.5945946,45.3356582 C34.4272205,45.3356582 34.2594052,45.3341873 34.0911486,45.3312456 C29.1826671,45.2454317 25.2484743,41.2418525 25.2484743,36.3326208 L25.2484743,34.2515022 C25.2484743,29.3422798 29.1826685,25.3387078 34.0911407,25.2528871 L34.0911407,25.2528871 Z M8.84266644,25.2528871 C9.01092568,25.2499452 9.17874364,25.2484743 9.34612031,25.2484743 C9.51349436,25.2484743 9.68130968,25.2499452 9.84956627,25.252887 C14.7580478,25.3387008 18.6922406,29.34228 18.6922406,34.2515117 L18.6922406,36.3326303 C18.6922406,41.2418527 14.7580464,45.2454247 9.84957419,45.3312454 C9.68131495,45.3341873 9.51349699,45.3356582 9.34612031,45.3356582 C9.17874626,45.3356582 9.01093095,45.3341873 8.84267436,45.3312456 C3.93419278,45.2454317 0,41.2418525 0,36.3326208 L0,34.2515022 C0,29.3422798 3.93419424,25.3387078 8.84266644,25.2528871 L8.84266644,25.2528871 Z M84.5880893,25.2528871 C84.7563485,25.2499452 84.9241665,25.2484743 85.0915432,25.2484743 C85.2589172,25.2484743 85.4267325,25.2499452 85.5949891,25.252887 C90.5034707,25.3387008 94.4376635,29.34228 94.4376635,34.2515117 L94.4376635,36.3326303 C94.4376635,41.2418527 90.5034692,45.2454247 85.594997,45.3312454 C85.4267378,45.3341873 85.2589198,45.3356582 85.0915432,45.3356582 C84.9241691,45.3356582 84.7563538,45.3341873 84.5880972,45.3312456 C79.6796156,45.2454317 75.7454228,41.2418525 75.7454228,36.3326208 L75.7454228,34.2515022 C75.7454228,29.3422798 79.6796171,25.3387078 84.5880893,25.2528871 Z M59.339615,25.2528871 C59.5078742,25.2499452 59.6756922,25.2484743 59.8430689,25.2484743 C60.0104429,25.2484743 60.1782582,25.2499452 60.3465148,25.252887 C65.2549964,25.3387008 69.1891892,29.34228 69.1891892,34.2515117 L69.1891892,36.3326303 C69.1891892,41.2418527 65.2549949,45.2454247 60.3465227,45.3312454 C60.1782635,45.3341873 60.0104456,45.3356582 59.8430689,45.3356582 C59.6756948,45.3356582 59.5078795,45.3341873 59.3396229,45.3312456 C54.4311413,45.2454317 50.4969486,41.2418525 50.4969486,36.3326208 L50.4969486,34.2515022 C50.4969486,29.3422798 54.4311428,25.3387078 59.339615,25.2528871 Z M109.836564,25.2528871 C110.004823,25.2499452 110.172641,25.2484743 110.340017,25.2484743 C110.507391,25.2484743 110.675207,25.2499452 110.843463,25.252887 C115.751945,25.3387008 119.686138,29.34228 119.686138,34.2515117 L119.686138,36.3326303 C119.686138,41.2418527 115.751944,45.2454247 110.843471,45.3312454 C110.675212,45.3341873 110.507394,45.3356582 110.340017,45.3356582 C110.172643,45.3356582 110.004828,45.3341873 109.836571,45.3312456 C104.92809,45.2454317 100.993897,41.2418525 100.993897,36.3326208 L100.993897,34.2515022 C100.993897,29.3422798 104.928091,25.3387078 109.836564,25.2528871 Z M34.0911407,50.5013614 C34.2594,50.4984195 34.4272179,50.4969486 34.5945946,50.4969486 C34.7619686,50.4969486 34.929784,50.4984195 35.0980405,50.5013612 C40.0065221,50.5871751 43.9407149,54.5907543 43.9407149,59.499986 L43.9407149,61.5811046 C43.9407149,66.490327 40.0065207,70.493899 35.0980485,70.5797197 C34.9297892,70.5826616 34.7619713,70.5841325 34.5945946,70.5841325 C34.4272205,70.5841325 34.2594052,70.5826616 34.0911486,70.5797198 C29.1826671,70.493906 25.2484743,66.4903268 25.2484743,61.5810951 L25.2484743,59.4999765 C25.2484743,54.5907541 29.1826685,50.5871821 34.0911407,50.5013614 L34.0911407,50.5013614 Z M8.84266644,50.5013614 C9.01092568,50.4984195 9.17874364,50.4969486 9.34612031,50.4969486 C9.51349436,50.4969486 9.68130968,50.4984195 9.84956627,50.5013612 C14.7580478,50.5871751 18.6922406,54.5907543 18.6922406,59.499986 L18.6922406,61.5811046 C18.6922406,66.490327 14.7580464,70.493899 9.84957419,70.5797197 C9.68131495,70.5826616 9.51349699,70.5841325 9.34612031,70.5841325 C9.17874626,70.5841325 9.01093095,70.5826616 8.84267436,70.5797198 C3.93419278,70.493906 0,66.4903268 0,61.5810951 L0,59.4999765 C0,54.5907541 3.93419424,50.5871821 8.84266644,50.5013614 L8.84266644,50.5013614 Z M84.5880893,50.5013614 C84.7563485,50.4984195 84.9241665,50.4969486 85.0915432,50.4969486 C85.2589172,50.4969486 85.4267325,50.4984195 85.5949891,50.5013612 C90.5034707,50.5871751 94.4376635,54.5907543 94.4376635,59.499986 L94.4376635,61.5811046 C94.4376635,66.490327 90.5034692,70.493899 85.594997,70.5797197 C85.4267378,70.5826616 85.2589198,70.5841325 85.0915432,70.5841325 C84.9241691,70.5841325 84.7563538,70.5826616 84.5880972,70.5797198 C79.6796156,70.493906 75.7454228,66.4903268 75.7454228,61.5810951 L75.7454228,59.4999765 C75.7454228,54.5907541 79.6796171,50.5871821 84.5880893,50.5013614 Z M109.836564,50.5013614 C110.004823,50.4984195 110.172641,50.4969486 110.340017,50.4969486 C110.507391,50.4969486 110.675207,50.4984195 110.843463,50.5013612 C115.751945,50.5871751 119.686138,54.5907543 119.686138,59.499986 L119.686138,61.5811046 C119.686138,66.490327 115.751944,70.493899 110.843471,70.5797197 C110.675212,70.5826616 110.507394,70.5841325 110.340017,70.5841325 C110.172643,70.5841325 110.004828,70.5826616 109.836571,70.5797198 C104.92809,70.493906 100.993897,66.4903268 100.993897,61.5810951 L100.993897,59.4999765 C100.993897,54.5907541 104.928091,50.5871821 109.836564,50.5013614 Z M34.0911407,75.7498357 C34.2594,75.7468938 34.4272179,75.7454228 34.5945946,75.7454228 C34.7619686,75.7454228 34.929784,75.7468937 35.0980405,75.7498355 C40.0065221,75.8356494 43.9407149,79.8392286 43.9407149,84.7484602 L43.9407149,86.8295789 C43.9407149,91.7388013 40.0065207,95.7423733 35.0980485,95.828194 C34.9297892,95.8311359 34.7619713,95.8326068 34.5945946,95.8326068 C34.4272205,95.8326068 34.2594052,95.8311359 34.0911486,95.8281941 C29.1826671,95.7423802 25.2484743,91.7388011 25.2484743,86.8295694 L25.2484743,84.7484508 C25.2484743,79.8392284 29.1826685,75.8356564 34.0911407,75.7498357 L34.0911407,75.7498357 Z M8.84266644,75.7498357 C9.01092568,75.7468938 9.17874364,75.7454228 9.34612031,75.7454228 C9.51349436,75.7454228 9.68130968,75.7468937 9.84956627,75.7498355 C14.7580478,75.8356494 18.6922406,79.8392286 18.6922406,84.7484602 L18.6922406,86.8295789 C18.6922406,91.7388013 14.7580464,95.7423733 9.84957419,95.828194 C9.68131495,95.8311359 9.51349699,95.8326068 9.34612031,95.8326068 C9.17874626,95.8326068 9.01093095,95.8311359 8.84267436,95.8281941 C3.93419278,95.7423802 0,91.7388011 0,86.8295694 L0,84.7484508 C0,79.8392284 3.93419424,75.8356564 8.84266644,75.7498357 L8.84266644,75.7498357 Z M84.5880893,75.7498357 C84.7563485,75.7468938 84.9241665,75.7454228 85.0915432,75.7454228 C85.2589172,75.7454228 85.4267325,75.7468937 85.5949891,75.7498355 C90.5034707,75.8356494 94.4376635,79.8392286 94.4376635,84.7484602 L94.4376635,86.8295789 C94.4376635,91.7388013 90.5034692,95.7423733 85.594997,95.828194 C85.4267378,95.8311359 85.2589198,95.8326068 85.0915432,95.8326068 C84.9241691,95.8326068 84.7563538,95.8311359 84.5880972,95.8281941 C79.6796156,95.7423802 75.7454228,91.7388011 75.7454228,86.8295694 L75.7454228,84.7484508 C75.7454228,79.8392284 79.6796171,75.8356564 84.5880893,75.7498357 Z M59.339615,75.7498357 C59.5078742,75.7468938 59.6756922,75.7454228 59.8430689,75.7454228 C60.0104429,75.7454228 60.1782582,75.7468937 60.3465148,75.7498355 C65.2549964,75.8356494 69.1891892,79.8392286 69.1891892,84.7484602 L69.1891892,86.8295789 C69.1891892,91.7388013 65.2549949,95.7423733 60.3465227,95.828194 C60.1782635,95.8311359 60.0104456,95.8326068 59.8430689,95.8326068 C59.6756948,95.8326068 59.5078795,95.8311359 59.3396229,95.8281941 C54.4311413,95.7423802 50.4969486,91.7388011 50.4969486,86.8295694 L50.4969486,84.7484508 C50.4969486,79.8392284 54.4311428,75.8356564 59.339615,75.7498357 Z M109.836564,75.7498357 C110.004823,75.7468938 110.172641,75.7454228 110.340017,75.7454228 C110.507391,75.7454228 110.675207,75.7468937 110.843463,75.7498355 C115.751945,75.8356494 119.686138,79.8392286 119.686138,84.7484602 L119.686138,86.8295789 C119.686138,91.7388013 115.751944,95.7423733 110.843471,95.828194 C110.675212,95.8311359 110.507394,95.8326068 110.340017,95.8326068 C110.172643,95.8326068 110.004828,95.8311359 109.836571,95.8281941 C104.92809,95.7423802 100.993897,91.7388011 100.993897,86.8295694 L100.993897,84.7484508 C100.993897,79.8392284 104.928091,75.8356564 109.836564,75.7498357 Z M34.0911407,100.99831 C34.2594,100.995368 34.4272179,100.993897 34.5945946,100.993897 C34.7619686,100.993897 34.929784,100.995368 35.0980405,100.99831 C40.0065221,101.084124 43.9407149,105.087703 43.9407149,109.996935 L43.9407149,112.078053 C43.9407149,116.987276 40.0065207,120.990848 35.0980485,121.076668 C34.9297892,121.07961 34.7619713,121.081081 34.5945946,121.081081 C34.4272205,121.081081 34.2594052,121.07961 34.0911486,121.076668 C29.1826671,120.990855 25.2484743,116.987275 25.2484743,112.078044 L25.2484743,109.996925 C25.2484743,105.087703 29.1826685,101.084131 34.0911407,100.99831 L34.0911407,100.99831 Z M84.5880893,100.99831 C84.7563485,100.995368 84.9241665,100.993897 85.0915432,100.993897 C85.2589172,100.993897 85.4267325,100.995368 85.5949891,100.99831 C90.5034707,101.084124 94.4376635,105.087703 94.4376635,109.996935 L94.4376635,112.078053 C94.4376635,116.987276 90.5034692,120.990848 85.594997,121.076668 C85.4267378,121.07961 85.2589198,121.081081 85.0915432,121.081081 C84.9241691,121.081081 84.7563538,121.07961 84.5880972,121.076668 C79.6796156,120.990855 75.7454228,116.987275 75.7454228,112.078044 L75.7454228,109.996925 C75.7454228,105.087703 79.6796171,101.084131 84.5880893,100.99831 Z M59.339615,100.99831 C59.5078742,100.995368 59.6756922,100.993897 59.8430689,100.993897 C60.0104429,100.993897 60.1782582,100.995368 60.3465148,100.99831 C65.2549964,101.084124 69.1891892,105.087703 69.1891892,109.996935 L69.1891892,112.078053 C69.1891892,116.987276 65.2549949,120.990848 60.3465227,121.076668 C60.1782635,121.07961 60.0104456,121.081081 59.8430689,121.081081 C59.6756948,121.081081 59.5078795,121.07961 59.3396229,121.076668 C54.4311413,120.990855 50.4969486,116.987275 50.4969486,112.078044 L50.4969486,109.996925 C50.4969486,105.087703 54.4311428,101.084131 59.339615,100.99831 L59.339615,100.99831 Z M34.0911407,0.00441281658 C34.2594,0.00147093886 34.4272179,0 34.5945946,0 C34.7619686,0 34.929784,0.00147089271 35.0980405,0.00441267812 C40.0065221,0.090226565 43.9407149,4.09380575 43.9407149,9.0030374 L43.9407149,11.084156 C43.9407149,15.9933784 40.0065207,19.9969504 35.0980485,20.0827711 C34.9297892,20.085713 34.7619713,20.087184 34.5945946,20.087184 C34.4272205,20.087184 34.2594052,20.0857131 34.0911486,20.0827713 C29.1826671,19.9969574 25.2484743,15.9933782 25.2484743,11.0841466 L25.2484743,9.00302791 C25.2484743,4.09380551 29.1826685,0.0902335123 34.0911407,0.00441281658 L34.0911407,0.00441281658 Z M84.5880893,0.00441281658 C84.7563485,0.00147093886 84.9241665,0 85.0915432,0 C85.2589172,0 85.4267325,0.00147089271 85.5949891,0.00441267812 C90.5034707,0.090226565 94.4376635,4.09380575 94.4376635,9.0030374 L94.4376635,11.084156 C94.4376635,15.9933784 90.5034692,19.9969504 85.594997,20.0827711 C85.4267378,20.085713 85.2589198,20.087184 85.0915432,20.087184 C84.9241691,20.087184 84.7563538,20.0857131 84.5880972,20.0827713 C79.6796156,19.9969574 75.7454228,15.9933782 75.7454228,11.0841466 L75.7454228,9.00302791 C75.7454228,4.09380551 79.6796171,0.0902335123 84.5880893,0.00441281658 Z M59.339615,0.00441281658 C59.5078742,0.00147093886 59.6756922,0 59.8430689,0 C60.0104429,0 60.1782582,0.00147089271 60.3465148,0.00441267812 C65.2549964,0.090226565 69.1891892,4.09380575 69.1891892,9.0030374 L69.1891892,11.084156 C69.1891892,15.9933784 65.2549949,19.9969504 60.3465227,20.0827711 C60.1782635,20.085713 60.0104456,20.087184 59.8430689,20.087184 C59.6756948,20.087184 59.5078795,20.0857131 59.3396229,20.0827713 C54.4311413,19.9969574 50.4969486,15.9933782 50.4969486,11.0841466 L50.4969486,9.00302791 C50.4969486,4.09380551 54.4311428,0.0902335123 59.339615,0.00441281658 Z" id="Shape" fill="url(#linearGradient-2)"></path>
                </g>
                <path d="M7.208,181 L7.208,163.96 C7.208,162.946667 7.18133333,161.893333 7.128,160.8 C7.07466667,159.706667 7.008,158.64 6.928,157.6 L6.928,157.6 L7.088,157.6 L18.528,181 L22.648,181 L22.648,152.44 L19.408,152.44 L19.408,169.24 C19.408,170.173333 19.428,171.206667 19.468,172.34 C19.508,173.473333 19.5546667,174.546667 19.608,175.56 L19.608,175.56 L19.488,175.56 L8.088,152.44 L3.968,152.44 L3.968,181 L7.208,181 Z M34.568,181.4 C35.688,181.4 36.7146667,181.12 37.648,180.56 C38.5813333,180 39.3146667,179.186667 39.848,178.12 L39.848,178.12 L40.048,178.12 L40.448,181 L43.168,181 L43.168,159.52 L39.808,159.52 L39.808,170.88 C39.808,173.413333 39.468,175.313333 38.788,176.58 C38.108,177.846667 36.888,178.48 35.128,178.48 C34.008,178.48 33.1813333,178.04 32.648,177.16 C32.1146667,176.28 31.848,174.906667 31.848,173.04 L31.848,173.04 L31.848,159.52 L28.528,159.52 L28.528,173.56 C28.528,176.04 29.0013333,177.966667 29.948,179.34 C30.8946667,180.713333 32.4346667,181.4 34.568,181.4 Z M50.568,156.04 C51.1546667,156.04 51.6146667,155.846667 51.948,155.46 C52.2813333,155.073333 52.448,154.506667 52.448,153.76 C52.448,152.24 51.8213333,151.48 50.568,151.48 C49.9813333,151.48 49.508,151.666667 49.148,152.04 C48.788,152.413333 48.608,152.986667 48.608,153.76 C48.608,154.506667 48.788,155.073333 49.148,155.46 C49.508,155.846667 49.9813333,156.04 50.568,156.04 Z M52.168,181 L52.168,159.52 L48.848,159.52 L48.848,181 L52.168,181 Z M59.168,181 L63.408,172.64 L67.608,181 L71.208,181 L65.368,170.08 L70.968,159.52 L67.368,159.52 L63.448,167.4 L59.568,159.52 L55.968,159.52 L61.488,169.96 L55.608,181 L59.168,181 Z M89.768,181 C93.4746667,181 96.3146667,179.773333 98.288,177.32 C100.261333,174.866667 101.248,171.226667 101.248,166.4 C101.248,161.84 100.281333,158.373333 98.348,156 C96.4146667,153.626667 93.688,152.44 90.168,152.44 L90.168,152.44 L83.328,152.44 L83.328,181 L89.768,181 Z M89.528,177.96 L86.768,177.96 L86.768,155.48 L89.928,155.48 C92.4346667,155.48 94.348,156.386667 95.668,158.2 C96.988,160.013333 97.648,162.786667 97.648,166.52 C97.648,170.306667 96.9813333,173.16 95.648,175.08 C94.3146667,177 92.2746667,177.96 89.528,177.96 L89.528,177.96 Z M107.888,156.04 C108.474667,156.04 108.934667,155.846667 109.268,155.46 C109.601333,155.073333 109.768,154.506667 109.768,153.76 C109.768,152.24 109.141333,151.48 107.888,151.48 C107.301333,151.48 106.828,151.666667 106.468,152.04 C106.108,152.413333 105.928,152.986667 105.928,153.76 C105.928,154.506667 106.108,155.073333 106.468,155.46 C106.828,155.846667 107.301333,156.04 107.888,156.04 Z M109.488,181 L109.488,159.52 L106.168,159.52 L106.168,181 L109.488,181 Z M119.288,181.4 C121.421333,181.4 123.094667,180.866667 124.308,179.8 C125.521333,178.733333 126.128,177.2 126.128,175.2 C126.128,173.546667 125.674667,172.26 124.768,171.34 C123.861333,170.42 122.634667,169.546667 121.088,168.72 C119.594667,167.946667 118.548,167.293333 117.948,166.76 C117.348,166.226667 117.048,165.533333 117.048,164.68 C117.048,163.826667 117.348,163.153333 117.948,162.66 C118.548,162.166667 119.381333,161.92 120.448,161.92 C121.221333,161.92 121.968,162.04 122.688,162.28 C123.408,162.52 124.101333,162.826667 124.768,163.2 L124.768,163.2 L125.968,160.56 C125.141333,160.106667 124.274667,159.753333 123.368,159.5 C122.461333,159.246667 121.501333,159.12 120.488,159.12 C118.514667,159.12 116.914667,159.633333 115.688,160.66 C114.461333,161.686667 113.848,163.066667 113.848,164.8 C113.848,166.48 114.314667,167.78 115.248,168.7 C116.181333,169.62 117.434667,170.48 119.008,171.28 C120.474667,172 121.488,172.653333 122.048,173.24 C122.608,173.826667 122.888,174.533333 122.888,175.36 C122.888,176.346667 122.581333,177.12 121.968,177.68 C121.354667,178.24 120.448,178.52 119.248,178.52 C118.261333,178.52 117.288,178.353333 116.328,178.02 C115.368,177.686667 114.554667,177.293333 113.888,176.84 L113.888,176.84 L113.888,180.16 C114.554667,180.506667 115.334667,180.8 116.228,181.04 C117.121333,181.28 118.141333,181.4 119.288,181.4 Z M137.368,181.4 C138.141333,181.4 138.914667,181.306667 139.688,181.12 C140.461333,180.933333 141.154667,180.653333 141.768,180.28 L141.768,180.28 L141.768,177.44 C141.128,177.76 140.461333,178.02 139.768,178.22 C139.074667,178.42 138.354667,178.52 137.608,178.52 C134.434667,178.52 132.848,175.8 132.848,170.36 C132.848,164.84 134.448,162.08 137.648,162.08 C138.181333,162.08 138.748,162.16 139.348,162.32 C139.948,162.48 140.514667,162.68 141.048,162.92 L141.048,162.92 L142.048,160.2 C141.461333,159.88 140.781333,159.62 140.008,159.42 C139.234667,159.22 138.394667,159.12 137.488,159.12 C134.901333,159.12 132.914667,160.086667 131.528,162.02 C130.141333,163.953333 129.448,166.746667 129.448,170.4 C129.448,174.106667 130.134667,176.866667 131.508,178.68 C132.881333,180.493333 134.834667,181.4 137.368,181.4 Z M152.848,181.4 C155.514667,181.4 157.528,180.386667 158.888,178.36 C160.248,176.333333 160.928,173.626667 160.928,170.24 C160.928,166.613333 160.214667,163.853333 158.788,161.96 C157.361333,160.066667 155.408,159.12 152.928,159.12 C150.261333,159.12 148.254667,160.086667 146.908,162.02 C145.561333,163.953333 144.888,166.693333 144.888,170.24 C144.888,173.653333 145.581333,176.366667 146.968,178.38 C148.354667,180.393333 150.314667,181.4 152.848,181.4 Z M152.928,178.52 C151.328,178.52 150.154667,177.813333 149.408,176.4 C148.661333,174.986667 148.288,172.933333 148.288,170.24 C148.288,167.546667 148.654667,165.5 149.388,164.1 C150.121333,162.7 151.301333,162 152.928,162 C154.501333,162 155.668,162.7 156.428,164.1 C157.188,165.5 157.568,167.546667 157.568,170.24 C157.568,172.933333 157.188,174.986667 156.428,176.4 C155.668,177.813333 154.501333,178.52 152.928,178.52 Z M172.288,181 L178.568,159.52 L175.088,159.52 L171.568,172.84 C171.328,173.72 171.101333,174.58 170.888,175.42 C170.674667,176.26 170.541333,176.946667 170.488,177.48 L170.488,177.48 L170.328,177.48 C170.194667,176.653333 170.021333,175.78 169.808,174.86 C169.594667,173.94 169.381333,173.066667 169.168,172.24 L169.168,172.24 L165.768,159.52 L162.328,159.52 L168.528,181 L172.288,181 Z M188.928,181.4 C190.021333,181.4 191.014667,181.286667 191.908,181.06 C192.801333,180.833333 193.674667,180.493333 194.528,180.04 L194.528,180.04 L194.528,177.08 C192.821333,178.066667 191.048,178.56 189.208,178.56 C185.714667,178.56 183.928,176.013333 183.848,170.92 L183.848,170.92 L195.368,170.92 L195.368,168.68 C195.368,166.866667 195.094667,165.24 194.548,163.8 C194.001333,162.36 193.194667,161.226667 192.128,160.4 C191.061333,159.573333 189.741333,159.16 188.168,159.16 C185.714667,159.16 183.828,160.133333 182.508,162.08 C181.188,164.026667 180.528,166.8 180.528,170.4 C180.528,172.56 180.834667,174.466667 181.448,176.12 C182.061333,177.773333 182.988,179.066667 184.228,180 C185.468,180.933333 187.034667,181.4 188.928,181.4 Z M192.168,168.28 L183.888,168.28 C184.128,164.013333 185.554667,161.88 188.168,161.88 C189.528,161.88 190.528,162.5 191.168,163.74 C191.808,164.98 192.141333,166.493333 192.168,168.28 L192.168,168.28 Z M203.288,181 L203.288,169.72 C203.288,168.306667 203.488,167.053333 203.888,165.96 C204.288,164.866667 204.834667,164.006667 205.528,163.38 C206.221333,162.753333 207.008,162.44 207.888,162.44 C208.208,162.44 208.521333,162.46 208.828,162.5 C209.134667,162.54 209.421333,162.613333 209.688,162.72 L209.688,162.72 L210.168,159.4 C209.821333,159.293333 209.474667,159.22 209.128,159.18 C208.781333,159.14 208.448,159.12 208.128,159.12 C207.008,159.12 206.041333,159.506667 205.228,160.28 C204.414667,161.053333 203.741333,162.053333 203.208,163.28 L203.208,163.28 L203.008,163.28 L202.608,159.52 L199.968,159.52 L199.968,181 L203.288,181 Z M220.576,170.16 C221.418667,170.16 222.2,170.016 222.92,169.728 C223.64,169.44 224.261333,169.032 224.784,168.504 C225.306667,167.976 225.714667,167.354667 226.008,166.64 C226.301333,165.925333 226.448,165.141333 226.448,164.288 C226.448,163.456 226.304,162.682667 226.016,161.968 C225.728,161.253333 225.32,160.632 224.792,160.104 C224.264,159.576 223.642667,159.162667 222.928,158.864 C222.213333,158.565333 221.429333,158.416 220.576,158.416 C219.754667,158.416 218.986667,158.557333 218.272,158.84 C217.557333,159.122667 216.933333,159.525333 216.4,160.048 C215.866667,160.570667 215.450667,161.192 215.152,161.912 C214.853333,162.632 214.704,163.424 214.704,164.288 C214.704,165.098667 214.842667,165.858667 215.12,166.568 C215.397333,167.277333 215.794667,167.901333 216.312,168.44 C216.829333,168.978667 217.448,169.4 218.168,169.704 C218.888,170.008 219.690667,170.16 220.576,170.16 Z M220.576,169.312 C219.626667,169.312 218.778667,169.096 218.032,168.664 C217.285333,168.232 216.693333,167.637333 216.256,166.88 C215.818667,166.122667 215.6,165.258667 215.6,164.288 C215.6,163.338667 215.810667,162.485333 216.232,161.728 C216.653333,160.970667 217.24,160.370667 217.992,159.928 C218.744,159.485333 219.605333,159.264 220.576,159.264 C221.525333,159.264 222.376,159.482667 223.128,159.92 C223.88,160.357333 224.469333,160.957333 224.896,161.72 C225.322667,162.482667 225.536,163.338667 225.536,164.288 C225.536,165.237333 225.322667,166.090667 224.896,166.848 C224.469333,167.605333 223.885333,168.205333 223.144,168.648 C222.402667,169.090667 221.546667,169.312 220.576,169.312 Z M219.6,167.712 L219.6,164.976 L220.656,164.976 L222.048,167.712 L223.344,167.712 L221.712,164.704 C222.074667,164.533333 222.36,164.296 222.568,163.992 C222.776,163.688 222.88,163.306667 222.88,162.848 C222.88,161.493333 222.042667,160.816 220.368,160.816 L220.368,160.816 L218.448,160.816 L218.448,167.712 L219.6,167.712 Z M220.32,164.08 L219.6,164.08 L219.6,161.776 L220.304,161.776 C221.221333,161.776 221.68,162.144 221.68,162.88 C221.68,163.274667 221.557333,163.573333 221.312,163.776 C221.066667,163.978667 220.736,164.08 220.32,164.08 L220.32,164.08 Z" id="NuixDiscover®" fill="#0E1F33" fill-rule="nonzero"></path>
            </g>
        </g>
    </g>
</svg>