<?xml version="1.0" encoding="UTF-8"?>
<svg width="268px" height="186px" viewBox="0 0 268 186" version="1.1" xmlns="http://www.w3.org/2000/svg" xmlns:xlink="http://www.w3.org/1999/xlink">
    <title>Investigate Wordmark - Vertical - Colour</title>
    <defs>
        <linearGradient x1="0%" y1="0%" x2="97.3807803%" y2="97.3807803%" id="linearGradient-1">
            <stop stop-color="#7AE3EB" offset="0%"></stop>
            <stop stop-color="#0098A3" offset="100%"></stop>
        </linearGradient>
        <linearGradient x1="13.2453167%" y1="23.1795323%" x2="92.334015%" y2="108.062261%" id="linearGradient-2">
            <stop stop-color="#00BECC" offset="0%"></stop>
            <stop stop-color="#00BECC" stop-opacity="0" offset="100%"></stop>
        </linearGradient>
        <linearGradient x1="72.3264621%" y1="140.432354%" x2="72.3264634%" y2="2.07693262%" id="linearGradient-3">
            <stop stop-color="#0098A3" stop-opacity="0.64" offset="0%"></stop>
            <stop stop-color="#0098A3" stop-opacity="0.16" offset="100%"></stop>
        </linearGradient>
    </defs>
    <g id="Page-1" stroke="none" stroke-width="1" fill="none" fill-rule="evenodd">
        <g id="Investigate-Logo---Colour" transform="translate(-1057.000000, -336.000000)">
            <g id="Investigate-Wordmark---Vertical---Colour" transform="translate(1057.000000, 336.000000)">
                <path d="M6.568,176 L6.568,158.96 C6.568,157.946667 6.54133333,156.893333 6.488,155.8 C6.43466667,154.706667 6.368,153.64 6.288,152.6 L6.288,152.6 L6.448,152.6 L17.888,176 L22.008,176 L22.008,147.44 L18.768,147.44 L18.768,164.24 C18.768,165.173333 18.788,166.206667 18.828,167.34 C18.868,168.473333 18.9146667,169.546667 18.968,170.56 L18.968,170.56 L18.848,170.56 L7.448,147.44 L3.328,147.44 L3.328,176 L6.568,176 Z M33.928,176.4 C35.048,176.4 36.0746667,176.12 37.008,175.56 C37.9413333,175 38.6746667,174.186667 39.208,173.12 L39.208,173.12 L39.408,173.12 L39.808,176 L42.528,176 L42.528,154.52 L39.168,154.52 L39.168,165.88 C39.168,168.413333 38.828,170.313333 38.148,171.58 C37.468,172.846667 36.248,173.48 34.488,173.48 C33.368,173.48 32.5413333,173.04 32.008,172.16 C31.4746667,171.28 31.208,169.906667 31.208,168.04 L31.208,168.04 L31.208,154.52 L27.888,154.52 L27.888,168.56 C27.888,171.04 28.3613333,172.966667 29.308,174.34 C30.2546667,175.713333 31.7946667,176.4 33.928,176.4 Z M49.928,151.04 C50.5146667,151.04 50.9746667,150.846667 51.308,150.46 C51.6413333,150.073333 51.808,149.506667 51.808,148.76 C51.808,147.24 51.1813333,146.48 49.928,146.48 C49.3413333,146.48 48.868,146.666667 48.508,147.04 C48.148,147.413333 47.968,147.986667 47.968,148.76 C47.968,149.506667 48.148,150.073333 48.508,150.46 C48.868,150.846667 49.3413333,151.04 49.928,151.04 Z M51.528,176 L51.528,154.52 L48.208,154.52 L48.208,176 L51.528,176 Z M58.528,176 L62.768,167.64 L66.968,176 L70.568,176 L64.728,165.08 L70.328,154.52 L66.728,154.52 L62.808,162.4 L58.928,154.52 L55.328,154.52 L60.848,164.96 L54.968,176 L58.528,176 Z M90.008,176 L90.008,174.04 L87.168,173.32 L87.168,150.12 L90.008,149.4 L90.008,147.44 L80.928,147.44 L80.928,149.4 L83.728,150.12 L83.728,173.32 L80.928,174.04 L80.928,176 L90.008,176 Z M97.648,176 L97.648,164.84 C97.648,162.146667 97.9946667,160.173333 98.688,158.92 C99.3813333,157.666667 100.581333,157.04 102.288,157.04 C103.461333,157.04 104.308,157.466667 104.828,158.32 C105.348,159.173333 105.608,160.453333 105.608,162.16 L105.608,162.16 L105.608,176 L108.928,176 L108.928,161.6 C108.928,159.04 108.421333,157.153333 107.408,155.94 C106.394667,154.726667 104.901333,154.12 102.928,154.12 C101.808,154.12 100.774667,154.406667 99.828,154.98 C98.8813333,155.553333 98.1413333,156.373333 97.608,157.44 L97.608,157.44 L97.408,157.44 L97.008,154.52 L94.328,154.52 L94.328,176 L97.648,176 Z M121.768,176 L128.048,154.52 L124.568,154.52 L121.048,167.84 C120.808,168.72 120.581333,169.58 120.368,170.42 C120.154667,171.26 120.021333,171.946667 119.968,172.48 L119.968,172.48 L119.808,172.48 C119.674667,171.653333 119.501333,170.78 119.288,169.86 C119.074667,168.94 118.861333,168.066667 118.648,167.24 L118.648,167.24 L115.248,154.52 L111.808,154.52 L118.008,176 L121.768,176 Z M138.408,176.4 C139.501333,176.4 140.494667,176.286667 141.388,176.06 C142.281333,175.833333 143.154667,175.493333 144.008,175.04 L144.008,175.04 L144.008,172.08 C142.301333,173.066667 140.528,173.56 138.688,173.56 C135.194667,173.56 133.408,171.013333 133.328,165.92 L133.328,165.92 L144.848,165.92 L144.848,163.68 C144.848,161.866667 144.574667,160.24 144.028,158.8 C143.481333,157.36 142.674667,156.226667 141.608,155.4 C140.541333,154.573333 139.221333,154.16 137.648,154.16 C135.194667,154.16 133.308,155.133333 131.988,157.08 C130.668,159.026667 130.008,161.8 130.008,165.4 C130.008,167.56 130.314667,169.466667 130.928,171.12 C131.541333,172.773333 132.468,174.066667 133.708,175 C134.948,175.933333 136.514667,176.4 138.408,176.4 Z M141.648,163.28 L133.368,163.28 C133.608,159.013333 135.034667,156.88 137.648,156.88 C139.008,156.88 140.008,157.5 140.648,158.74 C141.288,159.98 141.621333,161.493333 141.648,163.28 L141.648,163.28 Z M153.568,176.4 C155.701333,176.4 157.374667,175.866667 158.588,174.8 C159.801333,173.733333 160.408,172.2 160.408,170.2 C160.408,168.546667 159.954667,167.26 159.048,166.34 C158.141333,165.42 156.914667,164.546667 155.368,163.72 C153.874667,162.946667 152.828,162.293333 152.228,161.76 C151.628,161.226667 151.328,160.533333 151.328,159.68 C151.328,158.826667 151.628,158.153333 152.228,157.66 C152.828,157.166667 153.661333,156.92 154.728,156.92 C155.501333,156.92 156.248,157.04 156.968,157.28 C157.688,157.52 158.381333,157.826667 159.048,158.2 L159.048,158.2 L160.248,155.56 C159.421333,155.106667 158.554667,154.753333 157.648,154.5 C156.741333,154.246667 155.781333,154.12 154.768,154.12 C152.794667,154.12 151.194667,154.633333 149.968,155.66 C148.741333,156.686667 148.128,158.066667 148.128,159.8 C148.128,161.48 148.594667,162.78 149.528,163.7 C150.461333,164.62 151.714667,165.48 153.288,166.28 C154.754667,167 155.768,167.653333 156.328,168.24 C156.888,168.826667 157.168,169.533333 157.168,170.36 C157.168,171.346667 156.861333,172.12 156.248,172.68 C155.634667,173.24 154.728,173.52 153.528,173.52 C152.541333,173.52 151.568,173.353333 150.608,173.02 C149.648,172.686667 148.834667,172.293333 148.168,171.84 L148.168,171.84 L148.168,175.16 C148.834667,175.506667 149.614667,175.8 150.508,176.04 C151.401333,176.28 152.421333,176.4 153.568,176.4 Z M169.608,176.4 C170.861333,176.4 171.914667,176.186667 172.768,175.76 L172.768,175.76 L172.768,173.12 C172.048,173.386667 171.301333,173.52 170.528,173.52 C169.701333,173.52 169.101333,173.24 168.728,172.68 C168.354667,172.12 168.168,171.253333 168.168,170.08 L168.168,170.08 L168.168,157.24 L172.528,157.24 L172.528,154.52 L168.168,154.52 L168.168,149.68 L166.008,149.68 L164.968,154.48 L162.528,155.52 L162.528,157.24 L164.808,157.24 L164.808,170.4 C164.808,172.533333 165.234667,174.066667 166.088,175 C166.941333,175.933333 168.114667,176.4 169.608,176.4 Z M178.008,151.04 C178.594667,151.04 179.054667,150.846667 179.388,150.46 C179.721333,150.073333 179.888,149.506667 179.888,148.76 C179.888,147.24 179.261333,146.48 178.008,146.48 C177.421333,146.48 176.948,146.666667 176.588,147.04 C176.228,147.413333 176.048,147.986667 176.048,148.76 C176.048,149.506667 176.228,150.073333 176.588,150.46 C176.948,150.846667 177.421333,151.04 178.008,151.04 Z M179.608,176 L179.608,154.52 L176.288,154.52 L176.288,176 L179.608,176 Z M191.408,185.6 C194.368,185.6 196.534667,184.8 197.908,183.2 C199.281333,181.6 199.968,179.293333 199.968,176.28 L199.968,176.28 L199.968,154.52 L197.208,154.52 L196.808,157.36 L196.608,157.36 C195.968,156.24 195.208,155.42 194.328,154.9 C193.448,154.38 192.448,154.12 191.328,154.12 C189.141333,154.12 187.421333,155.086667 186.168,157.02 C184.914667,158.953333 184.288,161.733333 184.288,165.36 C184.288,168.933333 184.901333,171.666667 186.128,173.56 C187.354667,175.453333 189.061333,176.4 191.248,176.4 C193.594667,176.4 195.381333,175.28 196.608,173.04 L196.608,173.04 L196.768,173.04 C196.714667,173.573333 196.681333,174.133333 196.668,174.72 C196.654667,175.306667 196.648,175.8 196.648,176.2 L196.648,176.2 L196.648,176.88 C196.648,178.906667 196.201333,180.386667 195.308,181.32 C194.414667,182.253333 193.114667,182.72 191.408,182.72 C189.381333,182.72 187.421333,182.213333 185.528,181.2 L185.528,181.2 L185.528,184.32 C187.154667,185.173333 189.114667,185.6 191.408,185.6 Z M192.048,173.56 C190.581333,173.56 189.488,172.893333 188.768,171.56 C188.048,170.226667 187.688,168.173333 187.688,165.4 C187.688,162.68 188.041333,160.606667 188.748,159.18 C189.454667,157.753333 190.514667,157.04 191.928,157.04 C193.554667,157.04 194.748,157.693333 195.508,159 C196.268,160.306667 196.648,162.386667 196.648,165.24 L196.648,165.24 L196.648,166.2 C196.648,171.106667 195.114667,173.56 192.048,173.56 Z M209.648,176.4 C210.981333,176.4 212.081333,176.12 212.948,175.56 C213.814667,175 214.581333,174.146667 215.248,173 L215.248,173 L215.368,173 L215.888,176 L218.408,176 L218.408,161.48 C218.408,159.08 217.921333,157.26 216.948,156.02 C215.974667,154.78 214.394667,154.16 212.208,154.16 C211.061333,154.16 209.968,154.306667 208.928,154.6 C207.888,154.893333 206.941333,155.293333 206.088,155.8 L206.088,155.8 L207.128,158.28 C207.928,157.853333 208.708,157.513333 209.468,157.26 C210.228,157.006667 210.994667,156.88 211.768,156.88 C212.914667,156.88 213.761333,157.253333 214.308,158 C214.854667,158.746667 215.128,159.973333 215.128,161.68 L215.128,161.68 L215.128,163.04 L212.328,163.16 C209.688,163.266667 207.688,163.9 206.328,165.06 C204.968,166.22 204.288,167.866667 204.288,170 C204.288,171.84 204.748,173.366667 205.668,174.58 C206.588,175.793333 207.914667,176.4 209.648,176.4 Z M210.688,173.68 C209.781333,173.68 209.054667,173.38 208.508,172.78 C207.961333,172.18 207.688,171.24 207.688,169.96 C207.688,168.573333 208.088,167.506667 208.888,166.76 C209.688,166.013333 211.008,165.6 212.848,165.52 L212.848,165.52 L215.128,165.4 L215.128,167.48 C215.128,169.48 214.721333,171.013333 213.908,172.08 C213.094667,173.146667 212.021333,173.68 210.688,173.68 Z M228.928,176.4 C230.181333,176.4 231.234667,176.186667 232.088,175.76 L232.088,175.76 L232.088,173.12 C231.368,173.386667 230.621333,173.52 229.848,173.52 C229.021333,173.52 228.421333,173.24 228.048,172.68 C227.674667,172.12 227.488,171.253333 227.488,170.08 L227.488,170.08 L227.488,157.24 L231.848,157.24 L231.848,154.52 L227.488,154.52 L227.488,149.68 L225.328,149.68 L224.288,154.48 L221.848,155.52 L221.848,157.24 L224.128,157.24 L224.128,170.4 C224.128,172.533333 224.554667,174.066667 225.408,175 C226.261333,175.933333 227.434667,176.4 228.928,176.4 Z M243.048,176.4 C244.141333,176.4 245.134667,176.286667 246.028,176.06 C246.921333,175.833333 247.794667,175.493333 248.648,175.04 L248.648,175.04 L248.648,172.08 C246.941333,173.066667 245.168,173.56 243.328,173.56 C239.834667,173.56 238.048,171.013333 237.968,165.92 L237.968,165.92 L249.488,165.92 L249.488,163.68 C249.488,161.866667 249.214667,160.24 248.668,158.8 C248.121333,157.36 247.314667,156.226667 246.248,155.4 C245.181333,154.573333 243.861333,154.16 242.288,154.16 C239.834667,154.16 237.948,155.133333 236.628,157.08 C235.308,159.026667 234.648,161.8 234.648,165.4 C234.648,167.56 234.954667,169.466667 235.568,171.12 C236.181333,172.773333 237.108,174.066667 238.348,175 C239.588,175.933333 241.154667,176.4 243.048,176.4 Z M246.288,163.28 L238.008,163.28 C238.248,159.013333 239.674667,156.88 242.288,156.88 C243.648,156.88 244.648,157.5 245.288,158.74 C245.928,159.98 246.261333,161.493333 246.288,163.28 L246.288,163.28 Z M261.216,166.16 C262.058667,166.16 262.84,166.016 263.56,165.728 C264.28,165.44 264.901333,165.032 265.424,164.504 C265.946667,163.976 266.354667,163.354667 266.648,162.64 C266.941333,161.925333 267.088,161.141333 267.088,160.288 C267.088,159.456 266.944,158.682667 266.656,157.968 C266.368,157.253333 265.96,156.632 265.432,156.104 C264.904,155.576 264.282667,155.162667 263.568,154.864 C262.853333,154.565333 262.069333,154.416 261.216,154.416 C260.394667,154.416 259.626667,154.557333 258.912,154.84 C258.197333,155.122667 257.573333,155.525333 257.04,156.048 C256.506667,156.570667 256.090667,157.192 255.792,157.912 C255.493333,158.632 255.344,159.424 255.344,160.288 C255.344,161.098667 255.482667,161.858667 255.76,162.568 C256.037333,163.277333 256.434667,163.901333 256.952,164.44 C257.469333,164.978667 258.088,165.4 258.808,165.704 C259.528,166.008 260.330667,166.16 261.216,166.16 Z M261.216,165.312 C260.266667,165.312 259.418667,165.096 258.672,164.664 C257.925333,164.232 257.333333,163.637333 256.896,162.88 C256.458667,162.122667 256.24,161.258667 256.24,160.288 C256.24,159.338667 256.450667,158.485333 256.872,157.728 C257.293333,156.970667 257.88,156.370667 258.632,155.928 C259.384,155.485333 260.245333,155.264 261.216,155.264 C262.165333,155.264 263.016,155.482667 263.768,155.92 C264.52,156.357333 265.109333,156.957333 265.536,157.72 C265.962667,158.482667 266.176,159.338667 266.176,160.288 C266.176,161.237333 265.962667,162.090667 265.536,162.848 C265.109333,163.605333 264.525333,164.205333 263.784,164.648 C263.042667,165.090667 262.186667,165.312 261.216,165.312 Z M260.24,163.712 L260.24,160.976 L261.296,160.976 L262.688,163.712 L263.984,163.712 L262.352,160.704 C262.714667,160.533333 263,160.296 263.208,159.992 C263.416,159.688 263.52,159.306667 263.52,158.848 C263.52,157.493333 262.682667,156.816 261.008,156.816 L261.008,156.816 L259.088,156.816 L259.088,163.712 L260.24,163.712 Z M260.96,160.08 L260.24,160.08 L260.24,157.776 L260.944,157.776 C261.861333,157.776 262.32,158.144 262.32,158.88 C262.32,159.274667 262.197333,159.573333 261.952,159.776 C261.706667,159.978667 261.376,160.08 260.96,160.08 L260.96,160.08 Z" id="NuixInvestigate®" fill="#0E1F33" fill-rule="nonzero"></path>
                <g id="Investigate-Mark" transform="translate(74.000000, 0.000000)">
                    <path d="M60,114 C89.8233765,114 114,89.8233765 114,60 C114,30.1766235 89.8233765,6 60,6 C30.1766235,6 6,30.1766235 6,60 C6,89.8233765 30.1766235,114 60,114 Z M60,120 C26.862915,120 0,93.137085 0,60 C0,26.862915 26.862915,0 60,0 C93.137085,0 120,26.862915 120,60 C120,93.137085 93.137085,120 60,120 Z" id="Mark-Base" fill="url(#linearGradient-1)" fill-rule="nonzero"></path>
                    <path d="M60,102 C59.2936108,102 59.2936108,88 60,60 C88,59.518751 102,59.518751 102,60 C102,36.8040405 83.1959595,18 60,18 C36.8040405,18 18,36.8040405 18,60 C18,83.1959595 36.8040405,102 60,102 Z" id="Oval" fill="url(#linearGradient-2)"></path>
                    <path d="M52.6696516,59.3164962 L27.9013887,16.5676865 C14.3119096,26.6160351 6,42.5818234 6,60 C6,73.8713741 11.2543878,86.8798607 20.4278886,96.7459185 L52.6696516,59.3164962 Z M60,60 L20.8403682,105.460368 C8.07863074,94.4574597 0,78.1721625 0,60 C0,37.8263772 12.0281225,18.462073 29.915621,8.07583401 L60,60 Z" id="Oval" fill="url(#linearGradient-3)" fill-rule="nonzero"></path>
                </g>
            </g>
        </g>
    </g>
</svg>