<?xml version="1.0" encoding="UTF-8"?>
<svg width="261px" height="183px" viewBox="0 0 261 183" version="1.1" xmlns="http://www.w3.org/2000/svg" xmlns:xlink="http://www.w3.org/1999/xlink">
    <title>Automation Wordmark - Vertical - Colour</title>
    <defs>
        <linearGradient x1="70.9651958%" y1="0%" x2="7.62529791%" y2="104.135398%" id="linearGradient-1">
            <stop stop-color="#B6A3FF" offset="0%"></stop>
            <stop stop-color="#4A34A3" offset="100%"></stop>
        </linearGradient>
        <linearGradient x1="89.6139096%" y1="32.4741207%" x2="0%" y2="163.115467%" id="linearGradient-2">
            <stop stop-color="#6E51E0" offset="0%"></stop>
            <stop stop-color="#6E51E0" stop-opacity="0" offset="100%"></stop>
        </linearGradient>
        <linearGradient x1="50%" y1="-28.7637383%" x2="50%" y2="125.480736%" id="linearGradient-3">
            <stop stop-color="#4A34A3" stop-opacity="0.64" offset="0%"></stop>
            <stop stop-color="#4A34A3" stop-opacity="0.16" offset="100%"></stop>
        </linearGradient>
    </defs>
    <g id="Page-1" stroke="none" stroke-width="1" fill="none" fill-rule="evenodd">
        <g id="Automation-Logo---Colour" transform="translate(-1053.000000, -344.000000)">
            <g id="Automation-Wordmark---Vertical---Colour" transform="translate(1053.000000, 344.000000)">
                <path d="M6.74,175 L6.74,157.96 C6.74,156.946667 6.71333333,155.893333 6.66,154.8 C6.60666667,153.706667 6.54,152.64 6.46,151.6 L6.46,151.6 L6.62,151.6 L18.06,175 L22.18,175 L22.18,146.44 L18.94,146.44 L18.94,163.24 C18.94,164.173333 18.96,165.206667 19,166.34 C19.04,167.473333 19.0866667,168.546667 19.14,169.56 L19.14,169.56 L19.02,169.56 L7.62,146.44 L3.5,146.44 L3.5,175 L6.74,175 Z M34.1,175.4 C35.22,175.4 36.2466667,175.12 37.18,174.56 C38.1133333,174 38.8466667,173.186667 39.38,172.12 L39.38,172.12 L39.58,172.12 L39.98,175 L42.7,175 L42.7,153.52 L39.34,153.52 L39.34,164.88 C39.34,167.413333 39,169.313333 38.32,170.58 C37.64,171.846667 36.42,172.48 34.66,172.48 C33.54,172.48 32.7133333,172.04 32.18,171.16 C31.6466667,170.28 31.38,168.906667 31.38,167.04 L31.38,167.04 L31.38,153.52 L28.06,153.52 L28.06,167.56 C28.06,170.04 28.5333333,171.966667 29.48,173.34 C30.4266667,174.713333 31.9666667,175.4 34.1,175.4 Z M50.1,150.04 C50.6866667,150.04 51.1466667,149.846667 51.48,149.46 C51.8133333,149.073333 51.98,148.506667 51.98,147.76 C51.98,146.24 51.3533333,145.48 50.1,145.48 C49.5133333,145.48 49.04,145.666667 48.68,146.04 C48.32,146.413333 48.14,146.986667 48.14,147.76 C48.14,148.506667 48.32,149.073333 48.68,149.46 C49.04,149.846667 49.5133333,150.04 50.1,150.04 Z M51.7,175 L51.7,153.52 L48.38,153.52 L48.38,175 L51.7,175 Z M58.7,175 L62.94,166.64 L67.14,175 L70.74,175 L64.9,164.08 L70.5,153.52 L66.9,153.52 L62.98,161.4 L59.1,153.52 L55.5,153.52 L61.02,163.96 L55.14,175 L58.7,175 Z M83.26,175 L85.74,166.12 L93.82,166.12 L96.3,175 L99.9,175 L91.66,146.4 L87.86,146.4 L79.66,175 L83.26,175 Z M93.06,162.96 L86.46,162.96 L88.86,153.8 C89.18,152.466667 89.4733333,151.08 89.74,149.64 C89.82,150.226667 89.9533333,150.92 90.14,151.72 C90.3266667,152.52 90.4866667,153.213333 90.62,153.8 L90.62,153.8 L93.06,162.96 Z M108.7,175.4 C109.82,175.4 110.846667,175.12 111.78,174.56 C112.713333,174 113.446667,173.186667 113.98,172.12 L113.98,172.12 L114.18,172.12 L114.58,175 L117.3,175 L117.3,153.52 L113.94,153.52 L113.94,164.88 C113.94,167.413333 113.6,169.313333 112.92,170.58 C112.24,171.846667 111.02,172.48 109.26,172.48 C108.14,172.48 107.313333,172.04 106.78,171.16 C106.246667,170.28 105.98,168.906667 105.98,167.04 L105.98,167.04 L105.98,153.52 L102.66,153.52 L102.66,167.56 C102.66,170.04 103.133333,171.966667 104.08,173.34 C105.026667,174.713333 106.566667,175.4 108.7,175.4 Z M127.9,175.4 C129.153333,175.4 130.206667,175.186667 131.06,174.76 L131.06,174.76 L131.06,172.12 C130.34,172.386667 129.593333,172.52 128.82,172.52 C127.993333,172.52 127.393333,172.24 127.02,171.68 C126.646667,171.12 126.46,170.253333 126.46,169.08 L126.46,169.08 L126.46,156.24 L130.82,156.24 L130.82,153.52 L126.46,153.52 L126.46,148.68 L124.3,148.68 L123.26,153.48 L120.82,154.52 L120.82,156.24 L123.1,156.24 L123.1,169.4 C123.1,171.533333 123.526667,173.066667 124.38,174 C125.233333,174.933333 126.406667,175.4 127.9,175.4 Z M141.54,175.4 C144.206667,175.4 146.22,174.386667 147.58,172.36 C148.94,170.333333 149.62,167.626667 149.62,164.24 C149.62,160.613333 148.906667,157.853333 147.48,155.96 C146.053333,154.066667 144.1,153.12 141.62,153.12 C138.953333,153.12 136.946667,154.086667 135.6,156.02 C134.253333,157.953333 133.58,160.693333 133.58,164.24 C133.58,167.653333 134.273333,170.366667 135.66,172.38 C137.046667,174.393333 139.006667,175.4 141.54,175.4 Z M141.62,172.52 C140.02,172.52 138.846667,171.813333 138.1,170.4 C137.353333,168.986667 136.98,166.933333 136.98,164.24 C136.98,161.546667 137.346667,159.5 138.08,158.1 C138.813333,156.7 139.993333,156 141.62,156 C143.193333,156 144.36,156.7 145.12,158.1 C145.88,159.5 146.26,161.546667 146.26,164.24 C146.26,166.933333 145.88,168.986667 145.12,170.4 C144.36,171.813333 143.193333,172.52 141.62,172.52 Z M157.62,175 L157.62,163.8 C157.62,161.453333 157.906667,159.573333 158.48,158.16 C159.053333,156.746667 160.166667,156.04 161.82,156.04 C162.913333,156.04 163.72,156.44 164.24,157.24 C164.76,158.04 165.02,159.333333 165.02,161.12 L165.02,161.12 L165.02,175 L168.3,175 L168.3,163.16 C168.3,160.84 168.62,159.073333 169.26,157.86 C169.9,156.646667 170.98,156.04 172.5,156.04 C173.566667,156.04 174.373333,156.453333 174.92,157.28 C175.466667,158.106667 175.74,159.413333 175.74,161.2 L175.74,161.2 L175.74,175 L179.06,175 L179.06,160.72 C179.06,158.133333 178.593333,156.22 177.66,154.98 C176.726667,153.74 175.286667,153.12 173.34,153.12 C170.833333,153.12 169.033333,154.28 167.94,156.6 L167.94,156.6 L167.7,156.6 C167.38,155.533333 166.8,154.686667 165.96,154.06 C165.12,153.433333 164.033333,153.12 162.7,153.12 C161.553333,153.12 160.54,153.4 159.66,153.96 C158.78,154.52 158.086667,155.346667 157.58,156.44 L157.58,156.44 L157.38,156.44 L156.98,153.52 L154.3,153.52 L154.3,175 L157.62,175 Z M188.66,175.4 C189.993333,175.4 191.093333,175.12 191.96,174.56 C192.826667,174 193.593333,173.146667 194.26,172 L194.26,172 L194.38,172 L194.9,175 L197.42,175 L197.42,160.48 C197.42,158.08 196.933333,156.26 195.96,155.02 C194.986667,153.78 193.406667,153.16 191.22,153.16 C190.073333,153.16 188.98,153.306667 187.94,153.6 C186.9,153.893333 185.953333,154.293333 185.1,154.8 L185.1,154.8 L186.14,157.28 C186.94,156.853333 187.72,156.513333 188.48,156.26 C189.24,156.006667 190.006667,155.88 190.78,155.88 C191.926667,155.88 192.773333,156.253333 193.32,157 C193.866667,157.746667 194.14,158.973333 194.14,160.68 L194.14,160.68 L194.14,162.04 L191.34,162.16 C188.7,162.266667 186.7,162.9 185.34,164.06 C183.98,165.22 183.3,166.866667 183.3,169 C183.3,170.84 183.76,172.366667 184.68,173.58 C185.6,174.793333 186.926667,175.4 188.66,175.4 Z M189.7,172.68 C188.793333,172.68 188.066667,172.38 187.52,171.78 C186.973333,171.18 186.7,170.24 186.7,168.96 C186.7,167.573333 187.1,166.506667 187.9,165.76 C188.7,165.013333 190.02,164.6 191.86,164.52 L191.86,164.52 L194.14,164.4 L194.14,166.48 C194.14,168.48 193.733333,170.013333 192.92,171.08 C192.106667,172.146667 191.033333,172.68 189.7,172.68 Z M207.94,175.4 C209.193333,175.4 210.246667,175.186667 211.1,174.76 L211.1,174.76 L211.1,172.12 C210.38,172.386667 209.633333,172.52 208.86,172.52 C208.033333,172.52 207.433333,172.24 207.06,171.68 C206.686667,171.12 206.5,170.253333 206.5,169.08 L206.5,169.08 L206.5,156.24 L210.86,156.24 L210.86,153.52 L206.5,153.52 L206.5,148.68 L204.34,148.68 L203.3,153.48 L200.86,154.52 L200.86,156.24 L203.14,156.24 L203.14,169.4 C203.14,171.533333 203.566667,173.066667 204.42,174 C205.273333,174.933333 206.446667,175.4 207.94,175.4 Z M216.34,150.04 C216.926667,150.04 217.386667,149.846667 217.72,149.46 C218.053333,149.073333 218.22,148.506667 218.22,147.76 C218.22,146.24 217.593333,145.48 216.34,145.48 C215.753333,145.48 215.28,145.666667 214.92,146.04 C214.56,146.413333 214.38,146.986667 214.38,147.76 C214.38,148.506667 214.56,149.073333 214.92,149.46 C215.28,149.846667 215.753333,150.04 216.34,150.04 Z M217.94,175 L217.94,153.52 L214.62,153.52 L214.62,175 L217.94,175 Z M230.58,175.4 C233.246667,175.4 235.26,174.386667 236.62,172.36 C237.98,170.333333 238.66,167.626667 238.66,164.24 C238.66,160.613333 237.946667,157.853333 236.52,155.96 C235.093333,154.066667 233.14,153.12 230.66,153.12 C227.993333,153.12 225.986667,154.086667 224.64,156.02 C223.293333,157.953333 222.62,160.693333 222.62,164.24 C222.62,167.653333 223.313333,170.366667 224.7,172.38 C226.086667,174.393333 228.046667,175.4 230.58,175.4 Z M230.66,172.52 C229.06,172.52 227.886667,171.813333 227.14,170.4 C226.393333,168.986667 226.02,166.933333 226.02,164.24 C226.02,161.546667 226.386667,159.5 227.12,158.1 C227.853333,156.7 229.033333,156 230.66,156 C232.233333,156 233.4,156.7 234.16,158.1 C234.92,159.5 235.3,161.546667 235.3,164.24 C235.3,166.933333 234.92,168.986667 234.16,170.4 C233.4,171.813333 232.233333,172.52 230.66,172.52 Z M246.66,175 L246.66,163.84 C246.66,161.146667 247.006667,159.173333 247.7,157.92 C248.393333,156.666667 249.593333,156.04 251.3,156.04 C252.473333,156.04 253.32,156.466667 253.84,157.32 C254.36,158.173333 254.62,159.453333 254.62,161.16 L254.62,161.16 L254.62,175 L257.94,175 L257.94,160.6 C257.94,158.04 257.433333,156.153333 256.42,154.94 C255.406667,153.726667 253.913333,153.12 251.94,153.12 C250.82,153.12 249.786667,153.406667 248.84,153.98 C247.893333,154.553333 247.153333,155.373333 246.62,156.44 L246.62,156.44 L246.42,156.44 L246.02,153.52 L243.34,153.52 L243.34,175 L246.66,175 Z" id="NuixAutomation" fill="#0E1F33" fill-rule="nonzero"></path>
                <g id="Automation-Mark" transform="translate(84.000000, 0.000000)">
                    <path d="M98.2043452,63.5975137 C99.1837856,63.0533801 99.9912978,62.245868 100.535431,61.2664276 C102.14471,58.3697252 101.101048,54.7169055 98.2043452,53.1076264 L14.9138576,6.83513323 C14.0225096,6.33993989 13.0196655,6.08007689 12,6.08007689 C8.6862915,6.08007689 6,8.76636839 6,12.0800769 L6,104.625063 C6,105.644729 6.259863,106.647573 6.75505634,107.538921 C8.36433545,110.435623 12.0171552,111.479286 14.9138576,109.870007 L98.2043452,63.5975137 Z M101.118203,68.8424573 L17.8277152,115.11495 C12.0343104,118.333509 4.7286709,116.246183 1.51011269,110.452778 C0.519726009,108.670082 0,106.664394 0,104.625063 L0,12.0800769 C0,5.45265989 5.372583,0.0800768897 12,0.0800768897 C14.039331,0.0800768897 16.0450192,0.599802899 17.8277152,1.59018958 L101.118203,47.8626827 C106.911608,51.0812409 108.998933,58.3868804 105.780375,64.1802852 C104.692108,66.139166 103.077084,67.7541902 101.118203,68.8424573 Z" id="Shape" fill="url(#linearGradient-1)" fill-rule="nonzero"></path>
                    <path d="M6.66666667,43.1634297 C7.79962833,43.1634297 8.91389953,43.4521664 9.90428621,44.0023812 L77.88,81.7634297 L17.8277152,115.129047 C12.0343104,118.347605 4.7286709,116.26028 1.51011269,110.466875 C0.519726009,108.684179 0,106.678491 0,104.63916 L0,49.8000964 L0.0182857881,49.3325553 C0.272782927,45.8830224 3.15212735,43.1634297 6.66666667,43.1634297 Z" id="Path" fill="url(#linearGradient-2)"></path>
                    <path d="M6.00156638,1.69865392 L6,58.1449863 C6,59.1646518 6.259863,60.1674959 6.75505634,61.0588439 C8.36433545,63.9555463 12.0171552,64.9992091 14.9138576,63.3899299 L71.9766667,31.6853206 L78.1533333,35.1186539 L17.8277152,68.6348736 C12.0343104,71.8534318 4.7286709,69.7661063 1.51011269,63.9727015 C0.519726009,62.1900054 0,60.1843173 0,58.1449863 L0,12.0941735 C0,7.65183284 2.41389437,3.7732874 6.00156638,1.69865392 Z" id="Path" fill="url(#linearGradient-3)" fill-rule="nonzero"></path>
                </g>
            </g>
        </g>
    </g>
</svg>