<?xml version="1.0" encoding="UTF-8"?>
<svg width="193px" height="186px" viewBox="0 0 193 186" version="1.1" xmlns="http://www.w3.org/2000/svg" xmlns:xlink="http://www.w3.org/1999/xlink">
    <title>Wordmark Vertical - Colour</title>
    <defs>
        <linearGradient x1="50%" y1="-11.7549899%" x2="50%" y2="109.611139%" id="linearGradient-1">
            <stop stop-color="#C2E087" offset="0%"></stop>
            <stop stop-color="#58800A" offset="100%"></stop>
        </linearGradient>
        <linearGradient x1="50%" y1="0%" x2="50%" y2="148.473695%" id="linearGradient-2">
            <stop stop-color="#91C22F" offset="0%"></stop>
            <stop stop-color="#91C22F" stop-opacity="0" offset="100%"></stop>
        </linearGradient>
        <linearGradient x1="-27.0346093%" y1="-1.30147454%" x2="78.9727442%" y2="64.834965%" id="linearGradient-3">
            <stop stop-color="#58800A" stop-opacity="0.64" offset="0%"></stop>
            <stop stop-color="#58800A" stop-opacity="0.16" offset="100%"></stop>
        </linearGradient>
    </defs>
    <g id="Page-1" stroke="none" stroke-width="1" fill="none" fill-rule="evenodd">
        <g id="Imager-Logo---Colour" transform="translate(-1089.000000, -336.000000)">
            <g id="Wordmark-Vertical---Colour" transform="translate(1089.000000, 336.000000)">
                <path d="M6.76,176 L6.76,158.96 C6.76,157.946667 6.73333333,156.893333 6.68,155.8 C6.62666667,154.706667 6.56,153.64 6.48,152.6 L6.48,152.6 L6.64,152.6 L18.08,176 L22.2,176 L22.2,147.44 L18.96,147.44 L18.96,164.24 C18.96,165.173333 18.98,166.206667 19.02,167.34 C19.06,168.473333 19.1066667,169.546667 19.16,170.56 L19.16,170.56 L19.04,170.56 L7.64,147.44 L3.52,147.44 L3.52,176 L6.76,176 Z M34.12,176.4 C35.24,176.4 36.2666667,176.12 37.2,175.56 C38.1333333,175 38.8666667,174.186667 39.4,173.12 L39.4,173.12 L39.6,173.12 L40,176 L42.72,176 L42.72,154.52 L39.36,154.52 L39.36,165.88 C39.36,168.413333 39.02,170.313333 38.34,171.58 C37.66,172.846667 36.44,173.48 34.68,173.48 C33.56,173.48 32.7333333,173.04 32.2,172.16 C31.6666667,171.28 31.4,169.906667 31.4,168.04 L31.4,168.04 L31.4,154.52 L28.08,154.52 L28.08,168.56 C28.08,171.04 28.5533333,172.966667 29.5,174.34 C30.4466667,175.713333 31.9866667,176.4 34.12,176.4 Z M50.12,151.04 C50.7066667,151.04 51.1666667,150.846667 51.5,150.46 C51.8333333,150.073333 52,149.506667 52,148.76 C52,147.24 51.3733333,146.48 50.12,146.48 C49.5333333,146.48 49.06,146.666667 48.7,147.04 C48.34,147.413333 48.16,147.986667 48.16,148.76 C48.16,149.506667 48.34,150.073333 48.7,150.46 C49.06,150.846667 49.5333333,151.04 50.12,151.04 Z M51.72,176 L51.72,154.52 L48.4,154.52 L48.4,176 L51.72,176 Z M58.72,176 L62.96,167.64 L67.16,176 L70.76,176 L64.92,165.08 L70.52,154.52 L66.92,154.52 L63,162.4 L59.12,154.52 L55.52,154.52 L61.04,164.96 L55.16,176 L58.72,176 Z M90.2,176 L90.2,174.04 L87.36,173.32 L87.36,150.12 L90.2,149.4 L90.2,147.44 L81.12,147.44 L81.12,149.4 L83.92,150.12 L83.92,173.32 L81.12,174.04 L81.12,176 L90.2,176 Z M97.84,176 L97.84,164.8 C97.84,162.453333 98.1266667,160.573333 98.7,159.16 C99.2733333,157.746667 100.386667,157.04 102.04,157.04 C103.133333,157.04 103.94,157.44 104.46,158.24 C104.98,159.04 105.24,160.333333 105.24,162.12 L105.24,162.12 L105.24,176 L108.52,176 L108.52,164.16 C108.52,161.84 108.84,160.073333 109.48,158.86 C110.12,157.646667 111.2,157.04 112.72,157.04 C113.786667,157.04 114.593333,157.453333 115.14,158.28 C115.686667,159.106667 115.96,160.413333 115.96,162.2 L115.96,162.2 L115.96,176 L119.28,176 L119.28,161.72 C119.28,159.133333 118.813333,157.22 117.88,155.98 C116.946667,154.74 115.506667,154.12 113.56,154.12 C111.053333,154.12 109.253333,155.28 108.16,157.6 L108.16,157.6 L107.92,157.6 C107.6,156.533333 107.02,155.686667 106.18,155.06 C105.34,154.433333 104.253333,154.12 102.92,154.12 C101.773333,154.12 100.76,154.4 99.88,154.96 C99,155.52 98.3066667,156.346667 97.8,157.44 L97.8,157.44 L97.6,157.44 L97.2,154.52 L94.52,154.52 L94.52,176 L97.84,176 Z M128.88,176.4 C130.213333,176.4 131.313333,176.12 132.18,175.56 C133.046667,175 133.813333,174.146667 134.48,173 L134.48,173 L134.6,173 L135.12,176 L137.64,176 L137.64,161.48 C137.64,159.08 137.153333,157.26 136.18,156.02 C135.206667,154.78 133.626667,154.16 131.44,154.16 C130.293333,154.16 129.2,154.306667 128.16,154.6 C127.12,154.893333 126.173333,155.293333 125.32,155.8 L125.32,155.8 L126.36,158.28 C127.16,157.853333 127.94,157.513333 128.7,157.26 C129.46,157.006667 130.226667,156.88 131,156.88 C132.146667,156.88 132.993333,157.253333 133.54,158 C134.086667,158.746667 134.36,159.973333 134.36,161.68 L134.36,161.68 L134.36,163.04 L131.56,163.16 C128.92,163.266667 126.92,163.9 125.56,165.06 C124.2,166.22 123.52,167.866667 123.52,170 C123.52,171.84 123.98,173.366667 124.9,174.58 C125.82,175.793333 127.146667,176.4 128.88,176.4 Z M129.92,173.68 C129.013333,173.68 128.286667,173.38 127.74,172.78 C127.193333,172.18 126.92,171.24 126.92,169.96 C126.92,168.573333 127.32,167.506667 128.12,166.76 C128.92,166.013333 130.24,165.6 132.08,165.52 L132.08,165.52 L134.36,165.4 L134.36,167.48 C134.36,169.48 133.953333,171.013333 133.14,172.08 C132.326667,173.146667 131.253333,173.68 129.92,173.68 Z M149.36,185.6 C152.32,185.6 154.486667,184.8 155.86,183.2 C157.233333,181.6 157.92,179.293333 157.92,176.28 L157.92,176.28 L157.92,154.52 L155.16,154.52 L154.76,157.36 L154.56,157.36 C153.92,156.24 153.16,155.42 152.28,154.9 C151.4,154.38 150.4,154.12 149.28,154.12 C147.093333,154.12 145.373333,155.086667 144.12,157.02 C142.866667,158.953333 142.24,161.733333 142.24,165.36 C142.24,168.933333 142.853333,171.666667 144.08,173.56 C145.306667,175.453333 147.013333,176.4 149.2,176.4 C151.546667,176.4 153.333333,175.28 154.56,173.04 L154.56,173.04 L154.72,173.04 C154.666667,173.573333 154.633333,174.133333 154.62,174.72 C154.606667,175.306667 154.6,175.8 154.6,176.2 L154.6,176.88 C154.6,178.906667 154.153333,180.386667 153.26,181.32 C152.366667,182.253333 151.066667,182.72 149.36,182.72 C147.333333,182.72 145.373333,182.213333 143.48,181.2 L143.48,181.2 L143.48,184.32 C145.106667,185.173333 147.066667,185.6 149.36,185.6 Z M150,173.56 C148.533333,173.56 147.44,172.893333 146.72,171.56 C146,170.226667 145.64,168.173333 145.64,165.4 C145.64,162.68 145.993333,160.606667 146.7,159.18 C147.406667,157.753333 148.466667,157.04 149.88,157.04 C151.506667,157.04 152.7,157.693333 153.46,159 C154.22,160.306667 154.6,162.386667 154.6,165.24 L154.6,165.24 L154.6,166.2 C154.6,171.106667 153.066667,173.56 150,173.56 Z M171,176.4 C172.093333,176.4 173.086667,176.286667 173.98,176.06 C174.873333,175.833333 175.746667,175.493333 176.6,175.04 L176.6,175.04 L176.6,172.08 C174.893333,173.066667 173.12,173.56 171.28,173.56 C167.786667,173.56 166,171.013333 165.92,165.92 L165.92,165.92 L177.44,165.92 L177.44,163.68 C177.44,161.866667 177.166667,160.24 176.62,158.8 C176.073333,157.36 175.266667,156.226667 174.2,155.4 C173.133333,154.573333 171.813333,154.16 170.24,154.16 C167.786667,154.16 165.9,155.133333 164.58,157.08 C163.26,159.026667 162.6,161.8 162.6,165.4 C162.6,167.56 162.906667,169.466667 163.52,171.12 C164.133333,172.773333 165.06,174.066667 166.3,175 C167.54,175.933333 169.106667,176.4 171,176.4 Z M174.24,163.28 L165.96,163.28 C166.2,159.013333 167.626667,156.88 170.24,156.88 C171.6,156.88 172.6,157.5 173.24,158.74 C173.88,159.98 174.213333,161.493333 174.24,163.28 L174.24,163.28 Z M185.36,176 L185.36,164.72 C185.36,163.306667 185.56,162.053333 185.96,160.96 C186.36,159.866667 186.906667,159.006667 187.6,158.38 C188.293333,157.753333 189.08,157.44 189.96,157.44 C190.28,157.44 190.593333,157.46 190.9,157.5 C191.206667,157.54 191.493333,157.613333 191.76,157.72 L191.76,157.72 L192.24,154.4 C191.893333,154.293333 191.546667,154.22 191.2,154.18 C190.853333,154.14 190.52,154.12 190.2,154.12 C189.08,154.12 188.113333,154.506667 187.3,155.28 C186.486667,156.053333 185.813333,157.053333 185.28,158.28 L185.28,158.28 L185.08,158.28 L184.68,154.52 L182.04,154.52 L182.04,176 L185.36,176 Z" id="NuixImager" fill="#0E1F33" fill-rule="nonzero"></path>
                <g id="Imager-Mark---Colour" transform="translate(45.000000, 0.000000)">
                    <path d="M51.9615242,6.92820323 L6,33.4641016 L6,86.5358984 L51.9615242,113.071797 L97.9230485,86.5358984 L97.9230485,33.4641016 L51.9615242,6.92820323 Z M51.9615242,0 L103.923048,30 L103.923048,90 L51.9615242,120 L1.84741111e-13,90 L1.84741111e-13,30 L51.9615242,0 Z" id="Mark-Base" fill="url(#linearGradient-1)" fill-rule="nonzero"></path>
                    <polygon id="Path" fill="url(#linearGradient-2)" points="51.9615242 42.8571429 103.923048 72.8571429 103.923048 90 51.9615242 120 3.45057316e-13 90 1.0658141e-13 72.8571429"></polygon>
                    <path d="M97.923,26.5358571 L103.923048,30 L103.923048,53.1428571 L51.9615242,83.1428571 L1.0658141e-13,53.1428571 L3.12638804e-13,30 L5.999,26.5368571 L6,49.6787555 L51.9615242,76.2146539 L97.9230485,49.6787555 L97.923,26.5358571 Z" id="Combined-Shape" fill="url(#linearGradient-3)" fill-rule="nonzero"></path>
                </g>
            </g>
        </g>
    </g>
</svg>