<?xml version="1.0" encoding="UTF-8"?>
<svg width="263px" height="232px" viewBox="0 0 263 232" version="1.1" xmlns="http://www.w3.org/2000/svg" xmlns:xlink="http://www.w3.org/1999/xlink">
    <title>Collector Wordmark - Vertical - Colour</title>
    <defs>
        <linearGradient x1="15.6881593%" y1="-12.332927%" x2="96.8508849%" y2="122.885703%" id="linearGradient-1">
            <stop stop-color="#ABE090" offset="0%"></stop>
            <stop stop-color="#2C8500" offset="100%"></stop>
        </linearGradient>
        <linearGradient x1="26.035503%" y1="0%" x2="76.6015099%" y2="128.028021%" id="linearGradient-2">
            <stop stop-color="#5AAD31" offset="0%"></stop>
            <stop stop-color="#5AAD31" stop-opacity="0" offset="100%"></stop>
        </linearGradient>
        <linearGradient x1="12.7166442%" y1="-13.3951136%" x2="78.125%" y2="100%" id="linearGradient-3">
            <stop stop-color="#2C8500" stop-opacity="0.64" offset="0%"></stop>
            <stop stop-color="#2C8500" stop-opacity="0.16" offset="100%"></stop>
        </linearGradient>
    </defs>
    <g id="Page-1" stroke="none" stroke-width="1" fill="none" fill-rule="evenodd">
        <g id="Collector-Logo---Colour" transform="translate(-1053.000000, -336.000000)">
            <g id="Collector-Wordmark---Vertical---Colour" transform="translate(1053.000000, 336.000000)">
                <path d="M19.16,176 L19.16,158.96 C19.16,157.946667 19.1333333,156.893333 19.08,155.8 C19.0266667,154.706667 18.96,153.64 18.88,152.6 L18.88,152.6 L19.04,152.6 L30.48,176 L34.6,176 L34.6,147.44 L31.36,147.44 L31.36,164.24 C31.36,165.173333 31.38,166.206667 31.42,167.34 C31.46,168.473333 31.5066667,169.546667 31.56,170.56 L31.56,170.56 L31.44,170.56 L20.04,147.44 L15.92,147.44 L15.92,176 L19.16,176 Z M46.52,176.4 C47.64,176.4 48.6666667,176.12 49.6,175.56 C50.5333333,175 51.2666667,174.186667 51.8,173.12 L51.8,173.12 L52,173.12 L52.4,176 L55.12,176 L55.12,154.52 L51.76,154.52 L51.76,165.88 C51.76,168.413333 51.42,170.313333 50.74,171.58 C50.06,172.846667 48.84,173.48 47.08,173.48 C45.96,173.48 45.1333333,173.04 44.6,172.16 C44.0666667,171.28 43.8,169.906667 43.8,168.04 L43.8,168.04 L43.8,154.52 L40.48,154.52 L40.48,168.56 C40.48,171.04 40.9533333,172.966667 41.9,174.34 C42.8466667,175.713333 44.3866667,176.4 46.52,176.4 Z M62.52,151.04 C63.1066667,151.04 63.5666667,150.846667 63.9,150.46 C64.2333333,150.073333 64.4,149.506667 64.4,148.76 C64.4,147.24 63.7733333,146.48 62.52,146.48 C61.9333333,146.48 61.46,146.666667 61.1,147.04 C60.74,147.413333 60.56,147.986667 60.56,148.76 C60.56,149.506667 60.74,150.073333 61.1,150.46 C61.46,150.846667 61.9333333,151.04 62.52,151.04 Z M64.12,176 L64.12,154.52 L60.8,154.52 L60.8,176 L64.12,176 Z M71.12,176 L75.36,167.64 L79.56,176 L83.16,176 L77.32,165.08 L82.92,154.52 L79.32,154.52 L75.4,162.4 L71.52,154.52 L67.92,154.52 L73.44,164.96 L67.56,176 L71.12,176 Z M108.04,176 L108.04,172.92 L98.72,172.92 L98.72,162.6 L107.48,162.6 L107.48,159.56 L98.72,159.56 L98.72,150.48 L108.04,150.48 L108.04,147.44 L95.28,147.44 L95.28,176 L108.04,176 Z M116.16,176 L116.16,164.84 C116.16,162.146667 116.506667,160.173333 117.2,158.92 C117.893333,157.666667 119.093333,157.04 120.8,157.04 C121.973333,157.04 122.82,157.466667 123.34,158.32 C123.86,159.173333 124.12,160.453333 124.12,162.16 L124.12,162.16 L124.12,176 L127.44,176 L127.44,161.6 C127.44,159.04 126.933333,157.153333 125.92,155.94 C124.906667,154.726667 123.413333,154.12 121.44,154.12 C120.32,154.12 119.286667,154.406667 118.34,154.98 C117.393333,155.553333 116.653333,156.373333 116.12,157.44 L116.12,157.44 L115.92,157.44 L115.52,154.52 L112.84,154.52 L112.84,176 L116.16,176 Z M137.96,176.4 C139.213333,176.4 140.266667,176.186667 141.12,175.76 L141.12,175.76 L141.12,173.12 C140.4,173.386667 139.653333,173.52 138.88,173.52 C138.053333,173.52 137.453333,173.24 137.08,172.68 C136.706667,172.12 136.52,171.253333 136.52,170.08 L136.52,170.08 L136.52,157.24 L140.88,157.24 L140.88,154.52 L136.52,154.52 L136.52,149.68 L134.36,149.68 L133.32,154.48 L130.88,155.52 L130.88,157.24 L133.16,157.24 L133.16,170.4 C133.16,172.533333 133.586667,174.066667 134.44,175 C135.293333,175.933333 136.466667,176.4 137.96,176.4 Z M152.08,176.4 C153.173333,176.4 154.166667,176.286667 155.06,176.06 C155.953333,175.833333 156.826667,175.493333 157.68,175.04 L157.68,175.04 L157.68,172.08 C155.973333,173.066667 154.2,173.56 152.36,173.56 C148.866667,173.56 147.08,171.013333 147,165.92 L147,165.92 L158.52,165.92 L158.52,163.68 C158.52,161.866667 158.246667,160.24 157.7,158.8 C157.153333,157.36 156.346667,156.226667 155.28,155.4 C154.213333,154.573333 152.893333,154.16 151.32,154.16 C148.866667,154.16 146.98,155.133333 145.66,157.08 C144.34,159.026667 143.68,161.8 143.68,165.4 C143.68,167.56 143.986667,169.466667 144.6,171.12 C145.213333,172.773333 146.14,174.066667 147.38,175 C148.62,175.933333 150.186667,176.4 152.08,176.4 Z M155.32,163.28 L147.04,163.28 C147.28,159.013333 148.706667,156.88 151.32,156.88 C152.68,156.88 153.68,157.5 154.32,158.74 C154.96,159.98 155.293333,161.493333 155.32,163.28 L155.32,163.28 Z M166.44,176 L166.44,164.72 C166.44,163.306667 166.64,162.053333 167.04,160.96 C167.44,159.866667 167.986667,159.006667 168.68,158.38 C169.373333,157.753333 170.16,157.44 171.04,157.44 C171.36,157.44 171.673333,157.46 171.98,157.5 C172.286667,157.54 172.573333,157.613333 172.84,157.72 L172.84,157.72 L173.32,154.4 C172.973333,154.293333 172.626667,154.22 172.28,154.18 C171.933333,154.14 171.6,154.12 171.28,154.12 C170.16,154.12 169.193333,154.506667 168.38,155.28 C167.566667,156.053333 166.893333,157.053333 166.36,158.28 L166.36,158.28 L166.16,158.28 L165.76,154.52 L163.12,154.52 L163.12,176 L166.44,176 Z M179.92,185.6 L179.92,176.24 C179.92,175.813333 179.906667,175.326667 179.88,174.78 C179.853333,174.233333 179.813333,173.693333 179.76,173.16 L179.76,173.16 L179.92,173.16 C180.453333,174.146667 181.18,174.933333 182.1,175.52 C183.02,176.106667 184.093333,176.4 185.32,176.4 C187.506667,176.4 189.213333,175.433333 190.44,173.5 C191.666667,171.566667 192.28,168.813333 192.28,165.24 C192.28,161.533333 191.66,158.753333 190.42,156.9 C189.18,155.046667 187.44,154.12 185.2,154.12 C184,154.12 182.966667,154.406667 182.1,154.98 C181.233333,155.553333 180.506667,156.373333 179.92,157.44 L179.92,157.44 L179.72,157.44 L179.32,154.52 L176.6,154.52 L176.6,185.6 L179.92,185.6 Z M184.56,173.52 C182.906667,173.52 181.72,172.853333 181,171.52 C180.28,170.186667 179.92,168.133333 179.92,165.36 L179.92,165.36 L179.92,164.6 C179.946667,162.013333 180.32,160.093333 181.04,158.84 C181.76,157.586667 182.92,156.96 184.52,156.96 C186.04,156.96 187.14,157.673333 187.82,159.1 C188.5,160.526667 188.84,162.573333 188.84,165.24 C188.84,167.933333 188.486667,169.986667 187.78,171.4 C187.073333,172.813333 186,173.52 184.56,173.52 Z M200.24,176 L200.24,164.72 C200.24,163.306667 200.44,162.053333 200.84,160.96 C201.24,159.866667 201.786667,159.006667 202.48,158.38 C203.173333,157.753333 203.96,157.44 204.84,157.44 C205.16,157.44 205.473333,157.46 205.78,157.5 C206.086667,157.54 206.373333,157.613333 206.64,157.72 L206.64,157.72 L207.12,154.4 C206.773333,154.293333 206.426667,154.22 206.08,154.18 C205.733333,154.14 205.4,154.12 205.08,154.12 C203.96,154.12 202.993333,154.506667 202.18,155.28 C201.366667,156.053333 200.693333,157.053333 200.16,158.28 L200.16,158.28 L199.96,158.28 L199.56,154.52 L196.92,154.52 L196.92,176 L200.24,176 Z M212.12,151.04 C212.706667,151.04 213.166667,150.846667 213.5,150.46 C213.833333,150.073333 214,149.506667 214,148.76 C214,147.24 213.373333,146.48 212.12,146.48 C211.533333,146.48 211.06,146.666667 210.7,147.04 C210.34,147.413333 210.16,147.986667 210.16,148.76 C210.16,149.506667 210.34,150.073333 210.7,150.46 C211.06,150.846667 211.533333,151.04 212.12,151.04 Z M213.72,176 L213.72,154.52 L210.4,154.52 L210.4,176 L213.72,176 Z M223.52,176.4 C225.653333,176.4 227.326667,175.866667 228.54,174.8 C229.753333,173.733333 230.36,172.2 230.36,170.2 C230.36,168.546667 229.906667,167.26 229,166.34 C228.093333,165.42 226.866667,164.546667 225.32,163.72 C223.826667,162.946667 222.78,162.293333 222.18,161.76 C221.58,161.226667 221.28,160.533333 221.28,159.68 C221.28,158.826667 221.58,158.153333 222.18,157.66 C222.78,157.166667 223.613333,156.92 224.68,156.92 C225.453333,156.92 226.2,157.04 226.92,157.28 C227.64,157.52 228.333333,157.826667 229,158.2 L229,158.2 L230.2,155.56 C229.373333,155.106667 228.506667,154.753333 227.6,154.5 C226.693333,154.246667 225.733333,154.12 224.72,154.12 C222.746667,154.12 221.146667,154.633333 219.92,155.66 C218.693333,156.686667 218.08,158.066667 218.08,159.8 C218.08,161.48 218.546667,162.78 219.48,163.7 C220.413333,164.62 221.666667,165.48 223.24,166.28 C224.706667,167 225.72,167.653333 226.28,168.24 C226.84,168.826667 227.12,169.533333 227.12,170.36 C227.12,171.346667 226.813333,172.12 226.2,172.68 C225.586667,173.24 224.68,173.52 223.48,173.52 C222.493333,173.52 221.52,173.353333 220.56,173.02 C219.6,172.686667 218.786667,172.293333 218.12,171.84 L218.12,171.84 L218.12,175.16 C218.786667,175.506667 219.566667,175.8 220.46,176.04 C221.353333,176.28 222.373333,176.4 223.52,176.4 Z M242.08,176.4 C243.173333,176.4 244.166667,176.286667 245.06,176.06 C245.953333,175.833333 246.826667,175.493333 247.68,175.04 L247.68,175.04 L247.68,172.08 C245.973333,173.066667 244.2,173.56 242.36,173.56 C238.866667,173.56 237.08,171.013333 237,165.92 L237,165.92 L248.52,165.92 L248.52,163.68 C248.52,161.866667 248.246667,160.24 247.7,158.8 C247.153333,157.36 246.346667,156.226667 245.28,155.4 C244.213333,154.573333 242.893333,154.16 241.32,154.16 C238.866667,154.16 236.98,155.133333 235.66,157.08 C234.34,159.026667 233.68,161.8 233.68,165.4 C233.68,167.56 233.986667,169.466667 234.6,171.12 C235.213333,172.773333 236.14,174.066667 237.38,175 C238.62,175.933333 240.186667,176.4 242.08,176.4 Z M245.32,163.28 L237.04,163.28 C237.28,159.013333 238.706667,156.88 241.32,156.88 C242.68,156.88 243.68,157.5 244.32,158.74 C244.96,159.98 245.293333,161.493333 245.32,163.28 L245.32,163.28 Z M12.8,224.4 C13.92,224.4 14.92,224.306667 15.8,224.12 C16.68,223.933333 17.5066667,223.653333 18.28,223.28 L18.28,223.28 L18.28,220.24 C17.5066667,220.56 16.7,220.82 15.86,221.02 C15.02,221.22 14.1333333,221.32 13.2,221.32 C10.8533333,221.32 9.03333333,220.286667 7.74,218.22 C6.44666667,216.153333 5.8,213.32 5.8,209.72 C5.8,207.56 6.06666667,205.6 6.6,203.84 C7.13333333,202.08 7.94,200.68 9.02,199.64 C10.1,198.6 11.4533333,198.08 13.08,198.08 C13.9866667,198.08 14.8333333,198.206667 15.62,198.46 C16.4066667,198.713333 17.1466667,199.04 17.84,199.44 L17.84,199.44 L19.12,196.52 C17.3066667,195.506667 15.28,195 13.04,195 C10.64,195 8.63333333,195.646667 7.02,196.94 C5.40666667,198.233333 4.2,199.986667 3.4,202.2 C2.6,204.413333 2.2,206.906667 2.2,209.68 C2.2,212.72 2.62,215.34 3.46,217.54 C4.3,219.74 5.50666667,221.433333 7.08,222.62 C8.65333333,223.806667 10.56,224.4 12.8,224.4 Z M29.96,224.4 C32.6266667,224.4 34.64,223.386667 36,221.36 C37.36,219.333333 38.04,216.626667 38.04,213.24 C38.04,209.613333 37.3266667,206.853333 35.9,204.96 C34.4733333,203.066667 32.52,202.12 30.04,202.12 C27.3733333,202.12 25.3666667,203.086667 24.02,205.02 C22.6733333,206.953333 22,209.693333 22,213.24 C22,216.653333 22.6933333,219.366667 24.08,221.38 C25.4666667,223.393333 27.4266667,224.4 29.96,224.4 Z M30.04,221.52 C28.44,221.52 27.2666667,220.813333 26.52,219.4 C25.7733333,217.986667 25.4,215.933333 25.4,213.24 C25.4,210.546667 25.7666667,208.5 26.5,207.1 C27.2333333,205.7 28.4133333,205 30.04,205 C31.6133333,205 32.78,205.7 33.54,207.1 C34.3,208.5 34.68,210.546667 34.68,213.24 C34.68,215.933333 34.3,217.986667 33.54,219.4 C32.78,220.813333 31.6133333,221.52 30.04,221.52 Z M46.04,224 L46.04,193.6 L42.72,193.6 L42.72,224 L46.04,224 Z M55,224 L55,193.6 L51.68,193.6 L51.68,224 L55,224 Z M68.08,224.4 C69.1733333,224.4 70.1666667,224.286667 71.06,224.06 C71.9533333,223.833333 72.8266667,223.493333 73.68,223.04 L73.68,223.04 L73.68,220.08 C71.9733333,221.066667 70.2,221.56 68.36,221.56 C64.8666667,221.56 63.08,219.013333 63,213.92 L63,213.92 L74.52,213.92 L74.52,211.68 C74.52,209.866667 74.2466667,208.24 73.7,206.8 C73.1533333,205.36 72.3466667,204.226667 71.28,203.4 C70.2133333,202.573333 68.8933333,202.16 67.32,202.16 C64.8666667,202.16 62.98,203.133333 61.66,205.08 C60.34,207.026667 59.68,209.8 59.68,213.4 C59.68,215.56 59.9866667,217.466667 60.6,219.12 C61.2133333,220.773333 62.14,222.066667 63.38,223 C64.62,223.933333 66.1866667,224.4 68.08,224.4 Z M71.32,211.28 L63.04,211.28 C63.28,207.013333 64.7066667,204.88 67.32,204.88 C68.68,204.88 69.68,205.5 70.32,206.74 C70.96,207.98 71.2933333,209.493333 71.32,211.28 L71.32,211.28 Z M86.08,224.4 C86.8533333,224.4 87.6266667,224.306667 88.4,224.12 C89.1733333,223.933333 89.8666667,223.653333 90.48,223.28 L90.48,223.28 L90.48,220.44 C89.84,220.76 89.1733333,221.02 88.48,221.22 C87.7866667,221.42 87.0666667,221.52 86.32,221.52 C83.1466667,221.52 81.56,218.8 81.56,213.36 C81.56,207.84 83.16,205.08 86.36,205.08 C86.8933333,205.08 87.46,205.16 88.06,205.32 C88.66,205.48 89.2266667,205.68 89.76,205.92 L89.76,205.92 L90.76,203.2 C90.1733333,202.88 89.4933333,202.62 88.72,202.42 C87.9466667,202.22 87.1066667,202.12 86.2,202.12 C83.6133333,202.12 81.6266667,203.086667 80.24,205.02 C78.8533333,206.953333 78.16,209.746667 78.16,213.4 C78.16,217.106667 78.8466667,219.866667 80.22,221.68 C81.5933333,223.493333 83.5466667,224.4 86.08,224.4 Z M99.52,224.4 C100.773333,224.4 101.826667,224.186667 102.68,223.76 L102.68,223.76 L102.68,221.12 C101.96,221.386667 101.213333,221.52 100.44,221.52 C99.6133333,221.52 99.0133333,221.24 98.64,220.68 C98.2666667,220.12 98.08,219.253333 98.08,218.08 L98.08,218.08 L98.08,205.24 L102.44,205.24 L102.44,202.52 L98.08,202.52 L98.08,197.68 L95.92,197.68 L94.88,202.48 L92.44,203.52 L92.44,205.24 L94.72,205.24 L94.72,218.4 C94.72,220.533333 95.1466667,222.066667 96,223 C96.8533333,223.933333 98.0266667,224.4 99.52,224.4 Z M107.92,199.04 C108.506667,199.04 108.966667,198.846667 109.3,198.46 C109.633333,198.073333 109.8,197.506667 109.8,196.76 C109.8,195.24 109.173333,194.48 107.92,194.48 C107.333333,194.48 106.86,194.666667 106.5,195.04 C106.14,195.413333 105.96,195.986667 105.96,196.76 C105.96,197.506667 106.14,198.073333 106.5,198.46 C106.86,198.846667 107.333333,199.04 107.92,199.04 Z M109.52,224 L109.52,202.52 L106.2,202.52 L106.2,224 L109.52,224 Z M122.16,224.4 C124.826667,224.4 126.84,223.386667 128.2,221.36 C129.56,219.333333 130.24,216.626667 130.24,213.24 C130.24,209.613333 129.526667,206.853333 128.1,204.96 C126.673333,203.066667 124.72,202.12 122.24,202.12 C119.573333,202.12 117.566667,203.086667 116.22,205.02 C114.873333,206.953333 114.2,209.693333 114.2,213.24 C114.2,216.653333 114.893333,219.366667 116.28,221.38 C117.666667,223.393333 119.626667,224.4 122.16,224.4 Z M122.24,221.52 C120.64,221.52 119.466667,220.813333 118.72,219.4 C117.973333,217.986667 117.6,215.933333 117.6,213.24 C117.6,210.546667 117.966667,208.5 118.7,207.1 C119.433333,205.7 120.613333,205 122.24,205 C123.813333,205 124.98,205.7 125.74,207.1 C126.5,208.5 126.88,210.546667 126.88,213.24 C126.88,215.933333 126.5,217.986667 125.74,219.4 C124.98,220.813333 123.813333,221.52 122.24,221.52 Z M138.24,224 L138.24,212.84 C138.24,210.146667 138.586667,208.173333 139.28,206.92 C139.973333,205.666667 141.173333,205.04 142.88,205.04 C144.053333,205.04 144.9,205.466667 145.42,206.32 C145.94,207.173333 146.2,208.453333 146.2,210.16 L146.2,210.16 L146.2,224 L149.52,224 L149.52,209.6 C149.52,207.04 149.013333,205.153333 148,203.94 C146.986667,202.726667 145.493333,202.12 143.52,202.12 C142.4,202.12 141.366667,202.406667 140.42,202.98 C139.473333,203.553333 138.733333,204.373333 138.2,205.44 L138.2,205.44 L138,205.44 L137.6,202.52 L134.92,202.52 L134.92,224 L138.24,224 Z M173.32,224.4 C174.44,224.4 175.44,224.306667 176.32,224.12 C177.2,223.933333 178.026667,223.653333 178.8,223.28 L178.8,223.28 L178.8,220.24 C178.026667,220.56 177.22,220.82 176.38,221.02 C175.54,221.22 174.653333,221.32 173.72,221.32 C171.373333,221.32 169.553333,220.286667 168.26,218.22 C166.966667,216.153333 166.32,213.32 166.32,209.72 C166.32,207.56 166.586667,205.6 167.12,203.84 C167.653333,202.08 168.46,200.68 169.54,199.64 C170.62,198.6 171.973333,198.08 173.6,198.08 C174.506667,198.08 175.353333,198.206667 176.14,198.46 C176.926667,198.713333 177.666667,199.04 178.36,199.44 L178.36,199.44 L179.64,196.52 C177.826667,195.506667 175.8,195 173.56,195 C171.16,195 169.153333,195.646667 167.54,196.94 C165.926667,198.233333 164.72,199.986667 163.92,202.2 C163.12,204.413333 162.72,206.906667 162.72,209.68 C162.72,212.72 163.14,215.34 163.98,217.54 C164.82,219.74 166.026667,221.433333 167.6,222.62 C169.173333,223.806667 171.08,224.4 173.32,224.4 Z M190.96,224.4 C192.053333,224.4 193.046667,224.286667 193.94,224.06 C194.833333,223.833333 195.706667,223.493333 196.56,223.04 L196.56,223.04 L196.56,220.08 C194.853333,221.066667 193.08,221.56 191.24,221.56 C187.746667,221.56 185.96,219.013333 185.88,213.92 L185.88,213.92 L197.4,213.92 L197.4,211.68 C197.4,209.866667 197.126667,208.24 196.58,206.8 C196.033333,205.36 195.226667,204.226667 194.16,203.4 C193.093333,202.573333 191.773333,202.16 190.2,202.16 C187.746667,202.16 185.86,203.133333 184.54,205.08 C183.22,207.026667 182.56,209.8 182.56,213.4 C182.56,215.56 182.866667,217.466667 183.48,219.12 C184.093333,220.773333 185.02,222.066667 186.26,223 C187.5,223.933333 189.066667,224.4 190.96,224.4 Z M194.2,211.28 L185.92,211.28 C186.16,207.013333 187.586667,204.88 190.2,204.88 C191.56,204.88 192.56,205.5 193.2,206.74 C193.84,207.98 194.173333,209.493333 194.2,211.28 L194.2,211.28 Z M205.32,224 L205.32,212.84 C205.32,210.146667 205.666667,208.173333 206.36,206.92 C207.053333,205.666667 208.253333,205.04 209.96,205.04 C211.133333,205.04 211.98,205.466667 212.5,206.32 C213.02,207.173333 213.28,208.453333 213.28,210.16 L213.28,210.16 L213.28,224 L216.6,224 L216.6,209.6 C216.6,207.04 216.093333,205.153333 215.08,203.94 C214.066667,202.726667 212.573333,202.12 210.6,202.12 C209.48,202.12 208.446667,202.406667 207.5,202.98 C206.553333,203.553333 205.813333,204.373333 205.28,205.44 L205.28,205.44 L205.08,205.44 L204.68,202.52 L202,202.52 L202,224 L205.32,224 Z M227.12,224.4 C228.373333,224.4 229.426667,224.186667 230.28,223.76 L230.28,223.76 L230.28,221.12 C229.56,221.386667 228.813333,221.52 228.04,221.52 C227.213333,221.52 226.613333,221.24 226.24,220.68 C225.866667,220.12 225.68,219.253333 225.68,218.08 L225.68,218.08 L225.68,205.24 L230.04,205.24 L230.04,202.52 L225.68,202.52 L225.68,197.68 L223.52,197.68 L222.48,202.48 L220.04,203.52 L220.04,205.24 L222.32,205.24 L222.32,218.4 C222.32,220.533333 222.746667,222.066667 223.6,223 C224.453333,223.933333 225.626667,224.4 227.12,224.4 Z M241.24,224.4 C242.333333,224.4 243.326667,224.286667 244.22,224.06 C245.113333,223.833333 245.986667,223.493333 246.84,223.04 L246.84,223.04 L246.84,220.08 C245.133333,221.066667 243.36,221.56 241.52,221.56 C238.026667,221.56 236.24,219.013333 236.16,213.92 L236.16,213.92 L247.68,213.92 L247.68,211.68 C247.68,209.866667 247.406667,208.24 246.86,206.8 C246.313333,205.36 245.506667,204.226667 244.44,203.4 C243.373333,202.573333 242.053333,202.16 240.48,202.16 C238.026667,202.16 236.14,203.133333 234.82,205.08 C233.5,207.026667 232.84,209.8 232.84,213.4 C232.84,215.56 233.146667,217.466667 233.76,219.12 C234.373333,220.773333 235.3,222.066667 236.54,223 C237.78,223.933333 239.346667,224.4 241.24,224.4 Z M244.48,211.28 L236.2,211.28 C236.44,207.013333 237.866667,204.88 240.48,204.88 C241.84,204.88 242.84,205.5 243.48,206.74 C244.12,207.98 244.453333,209.493333 244.48,211.28 L244.48,211.28 Z M255.6,224 L255.6,212.72 C255.6,211.306667 255.8,210.053333 256.2,208.96 C256.6,207.866667 257.146667,207.006667 257.84,206.38 C258.533333,205.753333 259.32,205.44 260.2,205.44 C260.52,205.44 260.833333,205.46 261.14,205.5 C261.446667,205.54 261.733333,205.613333 262,205.72 L262,205.72 L262.48,202.4 C262.133333,202.293333 261.786667,202.22 261.44,202.18 C261.093333,202.14 260.76,202.12 260.44,202.12 C259.32,202.12 258.353333,202.506667 257.54,203.28 C256.726667,204.053333 256.053333,205.053333 255.52,206.28 L255.52,206.28 L255.32,206.28 L254.92,202.52 L252.28,202.52 L252.28,224 L255.6,224 Z" id="NuixEnterpriseCollectionCenter" fill="#0E1F33" fill-rule="nonzero"></path>
                <g id="Collector-Mark" transform="translate(84.000000, 0.000000)">
                    <path d="M39.3833112,30 C35.4121997,30 34.2028843,30.2335296 32.9685189,30.8936754 C32.0585742,31.3803192 31.3803192,32.0585742 30.8936754,32.9685189 C30.2335296,34.2028843 30,35.4121997 30,39.3833112 L30,104.616689 C30,108.5878 30.2335296,109.797116 30.8936754,111.031481 C31.3803192,111.941426 32.0585742,112.619681 32.9685189,113.106325 C34.2028843,113.76647 35.4121997,114 39.3833112,114 L80.6166888,114 C84.5878003,114 85.7971157,113.76647 87.0314811,113.106325 C87.9414258,112.619681 88.6196808,111.941426 89.1063246,111.031481 C89.7664704,109.797116 90,108.5878 90,104.616689 L90,39.3833112 C90,35.4121997 89.7664704,34.2028843 89.1063246,32.9685189 C88.6196808,32.0585742 87.9414258,31.3803192 87.0314811,30.8936754 C85.7971157,30.2335296 84.5878003,30 80.6166888,30 L39.3833112,30 Z M39.3833112,24 L80.6166888,24 C85.9658012,24 87.9055187,24.5569537 89.8610742,25.6027962 C91.8166298,26.6486388 93.3513612,28.1833702 94.3972038,30.1389258 C95.4430463,32.0944813 96,34.0341988 96,39.3833112 L96,104.616689 C96,109.965801 95.4430463,111.905519 94.3972038,113.861074 C93.3513612,115.81663 91.8166298,117.351361 89.8610742,118.397204 C87.9055187,119.443046 85.9658012,120 80.6166888,120 L39.3833112,120 C34.0341988,120 32.0944813,119.443046 30.1389258,118.397204 C28.1833702,117.351361 26.6486388,115.81663 25.6027962,113.861074 C24.5569537,111.905519 24,109.965801 24,104.616689 L24,39.3833112 C24,34.0341988 24.5569537,32.0944813 25.6027962,30.1389258 C26.6486388,28.1833702 28.1833702,26.6486388 30.1389258,25.6027962 C32.0944813,24.5569537 34.0341988,24 39.3833112,24 Z" id="Mark-Base" fill="url(#linearGradient-1)" fill-rule="nonzero"></path>
                    <path d="M57.2238572,42 L96,42 L96,104.616689 C96,109.965801 95.4430463,111.905519 94.3972038,113.861074 C93.3513612,115.81663 91.8166298,117.351361 89.8610742,118.397204 L89.7437325,118.459367 C87.8461291,119.454839 85.8989718,119.989035 80.7761428,120 L42,120 L42,57.2238572 L42.001482,56.9140929 C42.0336286,51.9185775 42.5881198,50.0362058 43.6027962,48.1389258 C44.6486388,46.1833702 46.1833702,44.6486388 48.1389258,43.6027962 L48.2550937,43.5412487 C50.1530681,42.5453812 52.0999719,42.0109675 57.2238572,42 Z" id="Path" fill="url(#linearGradient-2)"></path>
                    <path d="M15.3833112,6 C11.4121997,6 10.2028843,6.23352957 8.96851893,6.89367541 C8.05857422,7.38031917 7.38031917,8.05857422 6.89367541,8.96851893 C6.23352957,10.2028843 6,11.4121997 6,15.3833112 L6,80.6166888 C6,84.5878003 6.23352957,85.7971157 6.89367541,87.0314811 C7.38031917,87.9414258 8.05857422,88.6196808 8.96851893,89.1063246 C10.2028843,89.7664704 11.4121997,90 15.3833112,90 L56.6166888,90 C60.5878003,90 61.7971157,89.7664704 63.0314811,89.1063246 C63.9414258,88.6196808 64.6196808,87.9414258 65.1063246,87.0314811 C65.7664704,85.7971157 66,84.5878003 66,80.6166888 L66,15.3833112 C66,11.4121997 65.7664704,10.2028843 65.1063246,8.96851893 C64.6196808,8.05857422 63.9414258,7.38031917 63.0314811,6.89367541 C61.7971157,6.23352957 60.5878003,6 56.6166888,6 L15.3833112,6 Z M15.3833112,0 L56.6166888,0 C61.9658012,0 63.9055187,0.556953667 65.8610742,1.60279622 C67.8166298,2.64863878 69.3513612,4.18337022 70.3972038,6.13892578 C71.4430463,8.09448133 72,10.0341988 72,15.3833112 L72,80.6166888 C72,85.9658012 71.4430463,87.9055187 70.3972038,89.8610742 C69.3513612,91.8166298 67.8166298,93.3513612 65.8610742,94.3972038 C63.9055187,95.4430463 61.9658012,96 56.6166888,96 L15.3833112,96 C10.0341988,96 8.09448133,95.4430463 6.13892578,94.3972038 C4.18337022,93.3513612 2.64863878,91.8166298 1.60279622,89.8610742 C0.556953667,87.9055187 0,85.9658012 0,80.6166888 L0,15.3833112 C0,10.0341988 0.556953667,8.09448133 1.60279622,6.13892578 C2.64863878,4.18337022 4.18337022,2.64863878 6.13892578,1.60279622 C8.09448133,0.556953667 10.0341988,0 15.3833112,0 Z" id="Rectangle" fill="url(#linearGradient-3)" fill-rule="nonzero"></path>
                </g>
            </g>
        </g>
    </g>
</svg>