<?xml version="1.0" encoding="UTF-8"?>
<svg width="222px" height="216px" viewBox="0 0 222 216" version="1.1" xmlns="http://www.w3.org/2000/svg" xmlns:xlink="http://www.w3.org/1999/xlink">
    <title>Cloud License Server Wordmark - Vertical - Colour</title>
    <defs>
        <linearGradient x1="0%" y1="18%" x2="100%" y2="85.2932551%" id="linearGradient-1">
            <stop stop-color="#F5E193" offset="0%"></stop>
            <stop stop-color="#D1A019" offset="100%"></stop>
        </linearGradient>
        <linearGradient x1="0%" y1="0%" x2="100%" y2="100%" id="linearGradient-2">
            <stop stop-color="#F5B914" offset="0%"></stop>
            <stop stop-color="#F5B914" stop-opacity="0" offset="100%"></stop>
        </linearGradient>
        <linearGradient x1="-8.54625369%" y1="-10.2500947%" x2="119.911541%" y2="106.185585%" id="linearGradient-3">
            <stop stop-color="#D1A019" stop-opacity="0.64" offset="0%"></stop>
            <stop stop-color="#D1A019" stop-opacity="0.16" offset="100%"></stop>
        </linearGradient>
    </defs>
    <g id="Page-1" stroke="none" stroke-width="1" fill="none" fill-rule="evenodd">
        <g id="Cloud-License-Sever-Logo---Colour" transform="translate(-1080.000000, -328.000000)">
            <g id="Cloud-License-Server-Wordmark---Vertical---Colour" transform="translate(1080.000000, 328.000000)">
                <g id="Cloud-License-Server-Mark" transform="translate(51.000000, 0.000000)">
                    <path d="M114,60 C114,45.2476088 103.277372,32.7460374 88.8809123,30.3941341 L86.03591,29.9293552 L84.6208805,27.4178319 C77.2246032,14.2902453 63.3409694,6 48,6 C24.8040405,6 6,24.8040405 6,48 C6,71.1959595 24.8040405,90 48,90 L84,90 C100.568542,90 114,76.5685425 114,60 Z M120,60 C120,79.882251 103.882251,96 84,96 L48,96 C21.490332,96 0,74.509668 0,48 C0,21.490332 21.490332,0 48,0 C65.9611767,0 81.6182219,9.86515966 89.848289,24.4726324 C106.949153,27.2663455 120,42.1090784 120,60 Z" id="Mark-Base" fill="url(#linearGradient-1)" fill-rule="nonzero"></path>
                    <path d="M120,60 C120,79.882251 103.882251,96 84,96 C77.9984099,96 54.8901514,96 48,96 C21.490332,96 0,74.509668 0,48 C0,21.490332 21.490332,0 48,0 C65.9611767,0 81.6182219,9.86515966 89.848289,24.4726324 C106.949153,27.2663455 120,42.1090784 120,60 Z" id="Mask"></path>
                    <circle id="Oval" fill="url(#linearGradient-2)" cx="84" cy="60" r="36"></circle>
                    <path d="M48,90 C71.1959595,90 90,71.1959595 90,48 C90,24.8040405 71.1959595,6 48,6 C24.8040405,6 6,24.8040405 6,48 C6,71.1959595 24.8040405,90 48,90 Z M48,96 C21.490332,96 0,74.509668 0,48 C0,21.490332 21.490332,0 48,0 C74.509668,0 96,21.490332 96,48 C96,74.509668 74.509668,96 48,96 Z" id="Oval" fill="url(#linearGradient-3)" fill-rule="nonzero"></path>
                </g>
                <path d="M33.12,160 L33.12,142.96 C33.12,141.946667 33.0933333,140.893333 33.04,139.8 C32.9866667,138.706667 32.92,137.64 32.84,136.6 L32.84,136.6 L33,136.6 L44.44,160 L48.56,160 L48.56,131.44 L45.32,131.44 L45.32,148.24 C45.32,149.173333 45.34,150.206667 45.38,151.34 C45.42,152.473333 45.4666667,153.546667 45.52,154.56 L45.52,154.56 L45.4,154.56 L34,131.44 L29.88,131.44 L29.88,160 L33.12,160 Z M60.48,160.4 C61.6,160.4 62.6266667,160.12 63.56,159.56 C64.4933333,159 65.2266667,158.186667 65.76,157.12 L65.76,157.12 L65.96,157.12 L66.36,160 L69.08,160 L69.08,138.52 L65.72,138.52 L65.72,149.88 C65.72,152.413333 65.38,154.313333 64.7,155.58 C64.02,156.846667 62.8,157.48 61.04,157.48 C59.92,157.48 59.0933333,157.04 58.56,156.16 C58.0266667,155.28 57.76,153.906667 57.76,152.04 L57.76,152.04 L57.76,138.52 L54.44,138.52 L54.44,152.56 C54.44,155.04 54.9133333,156.966667 55.86,158.34 C56.8066667,159.713333 58.3466667,160.4 60.48,160.4 Z M76.48,135.04 C77.0666667,135.04 77.5266667,134.846667 77.86,134.46 C78.1933333,134.073333 78.36,133.506667 78.36,132.76 C78.36,131.24 77.7333333,130.48 76.48,130.48 C75.8933333,130.48 75.42,130.666667 75.06,131.04 C74.7,131.413333 74.52,131.986667 74.52,132.76 C74.52,133.506667 74.7,134.073333 75.06,134.46 C75.42,134.846667 75.8933333,135.04 76.48,135.04 Z M78.08,160 L78.08,138.52 L74.76,138.52 L74.76,160 L78.08,160 Z M85.08,160 L89.32,151.64 L93.52,160 L97.12,160 L91.28,149.08 L96.88,138.52 L93.28,138.52 L89.36,146.4 L85.48,138.52 L81.88,138.52 L87.4,148.96 L81.52,160 L85.08,160 Z M118.76,160.4 C119.88,160.4 120.88,160.306667 121.76,160.12 C122.64,159.933333 123.466667,159.653333 124.24,159.28 L124.24,159.28 L124.24,156.24 C123.466667,156.56 122.66,156.82 121.82,157.02 C120.98,157.22 120.093333,157.32 119.16,157.32 C116.813333,157.32 114.993333,156.286667 113.7,154.22 C112.406667,152.153333 111.76,149.32 111.76,145.72 C111.76,143.56 112.026667,141.6 112.56,139.84 C113.093333,138.08 113.9,136.68 114.98,135.64 C116.06,134.6 117.413333,134.08 119.04,134.08 C119.946667,134.08 120.793333,134.206667 121.58,134.46 C122.366667,134.713333 123.106667,135.04 123.8,135.44 L123.8,135.44 L125.08,132.52 C123.266667,131.506667 121.24,131 119,131 C116.6,131 114.593333,131.646667 112.98,132.94 C111.366667,134.233333 110.16,135.986667 109.36,138.2 C108.56,140.413333 108.16,142.906667 108.16,145.68 C108.16,148.72 108.58,151.34 109.42,153.54 C110.26,155.74 111.466667,157.433333 113.04,158.62 C114.613333,159.806667 116.52,160.4 118.76,160.4 Z M132.28,160 L132.28,129.6 L128.96,129.6 L128.96,160 L132.28,160 Z M144.88,160.4 C147.546667,160.4 149.56,159.386667 150.92,157.36 C152.28,155.333333 152.96,152.626667 152.96,149.24 C152.96,145.613333 152.246667,142.853333 150.82,140.96 C149.393333,139.066667 147.44,138.12 144.96,138.12 C142.293333,138.12 140.286667,139.086667 138.94,141.02 C137.593333,142.953333 136.92,145.693333 136.92,149.24 C136.92,152.653333 137.613333,155.366667 139,157.38 C140.386667,159.393333 142.346667,160.4 144.88,160.4 Z M144.96,157.52 C143.36,157.52 142.186667,156.813333 141.44,155.4 C140.693333,153.986667 140.32,151.933333 140.32,149.24 C140.32,146.546667 140.686667,144.5 141.42,143.1 C142.153333,141.7 143.333333,141 144.96,141 C146.533333,141 147.7,141.7 148.46,143.1 C149.22,144.5 149.6,146.546667 149.6,149.24 C149.6,151.933333 149.22,153.986667 148.46,155.4 C147.7,156.813333 146.533333,157.52 144.96,157.52 Z M163.56,160.4 C164.68,160.4 165.706667,160.12 166.64,159.56 C167.573333,159 168.306667,158.186667 168.84,157.12 L168.84,157.12 L169.04,157.12 L169.44,160 L172.16,160 L172.16,138.52 L168.8,138.52 L168.8,149.88 C168.8,152.413333 168.46,154.313333 167.78,155.58 C167.1,156.846667 165.88,157.48 164.12,157.48 C163,157.48 162.173333,157.04 161.64,156.16 C161.106667,155.28 160.84,153.906667 160.84,152.04 L160.84,152.04 L160.84,138.52 L157.52,138.52 L157.52,152.56 C157.52,155.04 157.993333,156.966667 158.94,158.34 C159.886667,159.713333 161.426667,160.4 163.56,160.4 Z M183.88,160.4 C185.106667,160.4 186.146667,160.12 187,159.56 C187.853333,159 188.573333,158.226667 189.16,157.24 L189.16,157.24 L189.36,157.24 L189.84,160 L192.52,160 L192.52,129.6 L189.16,129.6 L189.16,138.28 C189.16,138.706667 189.173333,139.18 189.2,139.7 C189.226667,140.22 189.266667,140.746667 189.32,141.28 L189.32,141.28 L189.16,141.28 C188.573333,140.293333 187.826667,139.52 186.92,138.96 C186.013333,138.4 184.973333,138.12 183.8,138.12 C181.613333,138.12 179.906667,139.08 178.68,141 C177.453333,142.92 176.84,145.68 176.84,149.28 C176.84,152.906667 177.453333,155.666667 178.68,157.56 C179.906667,159.453333 181.64,160.4 183.88,160.4 Z M184.56,157.6 C183.093333,157.6 182.006667,156.893333 181.3,155.48 C180.593333,154.066667 180.24,152.013333 180.24,149.32 C180.24,146.68 180.586667,144.64 181.28,143.2 C181.973333,141.76 183.053333,141.04 184.52,141.04 C186.2,141.04 187.4,141.706667 188.12,143.04 C188.84,144.373333 189.2,146.4 189.2,149.12 L189.2,149.12 L189.2,150.16 C189.2,152.64 188.826667,154.5 188.08,155.74 C187.333333,156.98 186.16,157.6 184.56,157.6 Z M16.72,208 L16.72,204.92 L7.44,204.92 L7.44,179.44 L4,179.44 L4,208 L16.72,208 Z M22.04,183.04 C22.6266667,183.04 23.0866667,182.846667 23.42,182.46 C23.7533333,182.073333 23.92,181.506667 23.92,180.76 C23.92,179.24 23.2933333,178.48 22.04,178.48 C21.4533333,178.48 20.98,178.666667 20.62,179.04 C20.26,179.413333 20.08,179.986667 20.08,180.76 C20.08,181.506667 20.26,182.073333 20.62,182.46 C20.98,182.846667 21.4533333,183.04 22.04,183.04 Z M23.64,208 L23.64,186.52 L20.32,186.52 L20.32,208 L23.64,208 Z M36.28,208.4 C37.0533333,208.4 37.8266667,208.306667 38.6,208.12 C39.3733333,207.933333 40.0666667,207.653333 40.68,207.28 L40.68,207.28 L40.68,204.44 C40.04,204.76 39.3733333,205.02 38.68,205.22 C37.9866667,205.42 37.2666667,205.52 36.52,205.52 C33.3466667,205.52 31.76,202.8 31.76,197.36 C31.76,191.84 33.36,189.08 36.56,189.08 C37.0933333,189.08 37.66,189.16 38.26,189.32 C38.86,189.48 39.4266667,189.68 39.96,189.92 L39.96,189.92 L40.96,187.2 C40.3733333,186.88 39.6933333,186.62 38.92,186.42 C38.1466667,186.22 37.3066667,186.12 36.4,186.12 C33.8133333,186.12 31.8266667,187.086667 30.44,189.02 C29.0533333,190.953333 28.36,193.746667 28.36,197.4 C28.36,201.106667 29.0466667,203.866667 30.42,205.68 C31.7933333,207.493333 33.7466667,208.4 36.28,208.4 Z M52.24,208.4 C53.3333333,208.4 54.3266667,208.286667 55.22,208.06 C56.1133333,207.833333 56.9866667,207.493333 57.84,207.04 L57.84,207.04 L57.84,204.08 C56.1333333,205.066667 54.36,205.56 52.52,205.56 C49.0266667,205.56 47.24,203.013333 47.16,197.92 L47.16,197.92 L58.68,197.92 L58.68,195.68 C58.68,193.866667 58.4066667,192.24 57.86,190.8 C57.3133333,189.36 56.5066667,188.226667 55.44,187.4 C54.3733333,186.573333 53.0533333,186.16 51.48,186.16 C49.0266667,186.16 47.14,187.133333 45.82,189.08 C44.5,191.026667 43.84,193.8 43.84,197.4 C43.84,199.56 44.1466667,201.466667 44.76,203.12 C45.3733333,204.773333 46.3,206.066667 47.54,207 C48.78,207.933333 50.3466667,208.4 52.24,208.4 Z M55.48,195.28 L47.2,195.28 C47.44,191.013333 48.8666667,188.88 51.48,188.88 C52.84,188.88 53.84,189.5 54.48,190.74 C55.12,191.98 55.4533333,193.493333 55.48,195.28 L55.48,195.28 Z M66.6,208 L66.6,196.84 C66.6,194.146667 66.9466667,192.173333 67.64,190.92 C68.3333333,189.666667 69.5333333,189.04 71.24,189.04 C72.4133333,189.04 73.26,189.466667 73.78,190.32 C74.3,191.173333 74.56,192.453333 74.56,194.16 L74.56,194.16 L74.56,208 L77.88,208 L77.88,193.6 C77.88,191.04 77.3733333,189.153333 76.36,187.94 C75.3466667,186.726667 73.8533333,186.12 71.88,186.12 C70.76,186.12 69.7266667,186.406667 68.78,186.98 C67.8333333,187.553333 67.0933333,188.373333 66.56,189.44 L66.56,189.44 L66.36,189.44 L65.96,186.52 L63.28,186.52 L63.28,208 L66.6,208 Z M87.6,208.4 C89.7333333,208.4 91.4066667,207.866667 92.62,206.8 C93.8333333,205.733333 94.44,204.2 94.44,202.2 C94.44,200.546667 93.9866667,199.26 93.08,198.34 C92.1733333,197.42 90.9466667,196.546667 89.4,195.72 C87.9066667,194.946667 86.86,194.293333 86.26,193.76 C85.66,193.226667 85.36,192.533333 85.36,191.68 C85.36,190.826667 85.66,190.153333 86.26,189.66 C86.86,189.166667 87.6933333,188.92 88.76,188.92 C89.5333333,188.92 90.28,189.04 91,189.28 C91.72,189.52 92.4133333,189.826667 93.08,190.2 L93.08,190.2 L94.28,187.56 C93.4533333,187.106667 92.5866667,186.753333 91.68,186.5 C90.7733333,186.246667 89.8133333,186.12 88.8,186.12 C86.8266667,186.12 85.2266667,186.633333 84,187.66 C82.7733333,188.686667 82.16,190.066667 82.16,191.8 C82.16,193.48 82.6266667,194.78 83.56,195.7 C84.4933333,196.62 85.7466667,197.48 87.32,198.28 C88.7866667,199 89.8,199.653333 90.36,200.24 C90.92,200.826667 91.2,201.533333 91.2,202.36 C91.2,203.346667 90.8933333,204.12 90.28,204.68 C89.6666667,205.24 88.76,205.52 87.56,205.52 C86.5733333,205.52 85.6,205.353333 84.64,205.02 C83.68,204.686667 82.8666667,204.293333 82.2,203.84 L82.2,203.84 L82.2,207.16 C82.8666667,207.506667 83.6466667,207.8 84.54,208.04 C85.4333333,208.28 86.4533333,208.4 87.6,208.4 Z M106.16,208.4 C107.253333,208.4 108.246667,208.286667 109.14,208.06 C110.033333,207.833333 110.906667,207.493333 111.76,207.04 L111.76,207.04 L111.76,204.08 C110.053333,205.066667 108.28,205.56 106.44,205.56 C102.946667,205.56 101.16,203.013333 101.08,197.92 L101.08,197.92 L112.6,197.92 L112.6,195.68 C112.6,193.866667 112.326667,192.24 111.78,190.8 C111.233333,189.36 110.426667,188.226667 109.36,187.4 C108.293333,186.573333 106.973333,186.16 105.4,186.16 C102.946667,186.16 101.06,187.133333 99.74,189.08 C98.42,191.026667 97.76,193.8 97.76,197.4 C97.76,199.56 98.0666667,201.466667 98.68,203.12 C99.2933333,204.773333 100.22,206.066667 101.46,207 C102.7,207.933333 104.266667,208.4 106.16,208.4 Z M109.4,195.28 L101.12,195.28 C101.36,191.013333 102.786667,188.88 105.4,188.88 C106.76,188.88 107.76,189.5 108.4,190.74 C109.04,191.98 109.373333,193.493333 109.4,195.28 L109.4,195.28 Z M130.88,208.4 C132.56,208.4 134.026667,208.06 135.28,207.38 C136.533333,206.7 137.5,205.746667 138.18,204.52 C138.86,203.293333 139.2,201.866667 139.2,200.24 C139.2,198.266667 138.686667,196.666667 137.66,195.44 C136.633333,194.213333 135.093333,193.12 133.04,192.16 C131.786667,191.573333 130.8,191.02 130.08,190.5 C129.36,189.98 128.846667,189.406667 128.54,188.78 C128.233333,188.153333 128.08,187.36 128.08,186.4 C128.08,185.173333 128.46,184.166667 129.22,183.38 C129.98,182.593333 131.066667,182.2 132.48,182.2 C133.333333,182.2 134.206667,182.326667 135.1,182.58 C135.993333,182.833333 136.866667,183.173333 137.72,183.6 L137.72,183.6 L138.84,180.48 C137.986667,180.08 137.013333,179.74 135.92,179.46 C134.826667,179.18 133.666667,179.04 132.44,179.04 C130.893333,179.04 129.526667,179.346667 128.34,179.96 C127.153333,180.573333 126.233333,181.44 125.58,182.56 C124.926667,183.68 124.6,184.986667 124.6,186.48 C124.6,187.973333 124.833333,189.22 125.3,190.22 C125.766667,191.22 126.453333,192.073333 127.36,192.78 C128.266667,193.486667 129.36,194.146667 130.64,194.76 C131.92,195.346667 132.933333,195.906667 133.68,196.44 C134.426667,196.973333 134.96,197.56 135.28,198.2 C135.6,198.84 135.76,199.626667 135.76,200.56 C135.76,201.893333 135.333333,203.006667 134.48,203.9 C133.626667,204.793333 132.413333,205.24 130.84,205.24 C129.773333,205.24 128.653333,205.1 127.48,204.82 C126.306667,204.54 125.266667,204.146667 124.36,203.64 L124.36,203.64 L124.36,207.12 C126.12,207.973333 128.293333,208.4 130.88,208.4 Z M151.12,208.4 C152.213333,208.4 153.206667,208.286667 154.1,208.06 C154.993333,207.833333 155.866667,207.493333 156.72,207.04 L156.72,207.04 L156.72,204.08 C155.013333,205.066667 153.24,205.56 151.4,205.56 C147.906667,205.56 146.12,203.013333 146.04,197.92 L146.04,197.92 L157.56,197.92 L157.56,195.68 C157.56,193.866667 157.286667,192.24 156.74,190.8 C156.193333,189.36 155.386667,188.226667 154.32,187.4 C153.253333,186.573333 151.933333,186.16 150.36,186.16 C147.906667,186.16 146.02,187.133333 144.7,189.08 C143.38,191.026667 142.72,193.8 142.72,197.4 C142.72,199.56 143.026667,201.466667 143.64,203.12 C144.253333,204.773333 145.18,206.066667 146.42,207 C147.66,207.933333 149.226667,208.4 151.12,208.4 Z M154.36,195.28 L146.08,195.28 C146.32,191.013333 147.746667,188.88 150.36,188.88 C151.72,188.88 152.72,189.5 153.36,190.74 C154,191.98 154.333333,193.493333 154.36,195.28 L154.36,195.28 Z M165.48,208 L165.48,196.72 C165.48,195.306667 165.68,194.053333 166.08,192.96 C166.48,191.866667 167.026667,191.006667 167.72,190.38 C168.413333,189.753333 169.2,189.44 170.08,189.44 C170.4,189.44 170.713333,189.46 171.02,189.5 C171.326667,189.54 171.613333,189.613333 171.88,189.72 L171.88,189.72 L172.36,186.4 C172.013333,186.293333 171.666667,186.22 171.32,186.18 C170.973333,186.14 170.64,186.12 170.32,186.12 C169.2,186.12 168.233333,186.506667 167.42,187.28 C166.606667,188.053333 165.933333,189.053333 165.4,190.28 L165.4,190.28 L165.2,190.28 L164.8,186.52 L162.16,186.52 L162.16,208 L165.48,208 Z M182.88,208 L189.16,186.52 L185.68,186.52 L182.16,199.84 C181.92,200.72 181.693333,201.58 181.48,202.42 C181.266667,203.26 181.133333,203.946667 181.08,204.48 L181.08,204.48 L180.92,204.48 C180.786667,203.653333 180.613333,202.78 180.4,201.86 C180.186667,200.94 179.973333,200.066667 179.76,199.24 L179.76,199.24 L176.36,186.52 L172.92,186.52 L179.12,208 L182.88,208 Z M199.52,208.4 C200.613333,208.4 201.606667,208.286667 202.5,208.06 C203.393333,207.833333 204.266667,207.493333 205.12,207.04 L205.12,207.04 L205.12,204.08 C203.413333,205.066667 201.64,205.56 199.8,205.56 C196.306667,205.56 194.52,203.013333 194.44,197.92 L194.44,197.92 L205.96,197.92 L205.96,195.68 C205.96,193.866667 205.686667,192.24 205.14,190.8 C204.593333,189.36 203.786667,188.226667 202.72,187.4 C201.653333,186.573333 200.333333,186.16 198.76,186.16 C196.306667,186.16 194.42,187.133333 193.1,189.08 C191.78,191.026667 191.12,193.8 191.12,197.4 C191.12,199.56 191.426667,201.466667 192.04,203.12 C192.653333,204.773333 193.58,206.066667 194.82,207 C196.06,207.933333 197.626667,208.4 199.52,208.4 Z M202.76,195.28 L194.48,195.28 C194.72,191.013333 196.146667,188.88 198.76,188.88 C200.12,188.88 201.12,189.5 201.76,190.74 C202.4,191.98 202.733333,193.493333 202.76,195.28 L202.76,195.28 Z M213.88,208 L213.88,196.72 C213.88,195.306667 214.08,194.053333 214.48,192.96 C214.88,191.866667 215.426667,191.006667 216.12,190.38 C216.813333,189.753333 217.6,189.44 218.48,189.44 C218.8,189.44 219.113333,189.46 219.42,189.5 C219.726667,189.54 220.013333,189.613333 220.28,189.72 L220.28,189.72 L220.76,186.4 C220.413333,186.293333 220.066667,186.22 219.72,186.18 C219.373333,186.14 219.04,186.12 218.72,186.12 C217.6,186.12 216.633333,186.506667 215.82,187.28 C215.006667,188.053333 214.333333,189.053333 213.8,190.28 L213.8,190.28 L213.6,190.28 L213.2,186.52 L210.56,186.52 L210.56,208 L213.88,208 Z" id="NuixCloudLicenseServer" fill="#0E1F33" fill-rule="nonzero"></path>
            </g>
        </g>
    </g>
</svg>